<svg xmlns="http://www.w3.org/2000/svg"><symbol viewBox="0 0 24 24" id="alert"><path d="M11.367 3.17a1.26 1.26 0 0 1 1.726.463l8.703 15.084A1.518 1.518 0 0 1 20.485 21H3.515a1.524 1.524 0 0 1-1.311-2.283l8.703-15.084c.11-.192.27-.351.46-.462zM12 16a1 1 0 1 0 0 2 1 1 0 0 0 0-2zm0-7.333a.94.94 0 0 0-.938.998l.23 3.67a.71.71 0 0 0 1.416 0l.23-3.67.001-.059a.94.94 0 0 0-.939-.94z"/></symbol><symbol viewBox="0 0 24 24" id="apple"><path fill-rule="evenodd" d="M15.277 7.325c.805 0 1.51.202 2.113.604.201.1.906.704 1.107 1.006-.503.402-.906.805-1.107 1.207-.402.604-.704 1.308-.704 2.012 0 .805.201 1.61.704 2.213.503.603 1.006 1.106 1.61 1.207-.1.402-.289 1.207-1.207 2.515-.919 1.307-1.71 1.911-2.616 1.911-.403 0-.805-.1-1.409-.302-.603-.201-1.106-.302-1.509-.302-.402 0-.905.101-1.408.302-.604.201-1.006.302-1.308.302-1.006 0-2.012-.905-3.019-2.615-1.006-1.71-1.509-3.42-1.509-5.03-.1-1.308.302-2.615 1.006-3.52.805-1.007 1.71-1.51 2.918-1.51.503 0 1.107.101 1.811.302.704.201 1.207.302 1.409.302.301 0 .704-.1 1.408-.302.704-.201 1.308-.302 1.71-.302zM15.077 3c.1.194.1.302.1.402 0 .403-.1.805-.302 1.308-.201.503-.503.905-.905 1.308-1.068.82-1.585.897-2.113.905 0-.905.302-1.71.704-2.414.604-.805 1.409-1.207 2.515-1.509z"/></symbol><symbol viewBox="0 0 24 24" id="apps-circle"><path d="M12 1c6.075 0 11 4.925 11 11s-4.925 11-11 11S1 18.075 1 12 5.925 1 12 1zm0 2a9 9 0 1 0 0 18 9 9 0 0 0 0-18zm1.325 5.115L15.7 12.5h2.8a1 1 0 0 1 .117 1.993l-.117.007h-1.717l1.096 2.024a1 1 0 0 1-1.692 1.058l-.067-.106-1.61-2.976h-.01l-1.075-2-.979-1.808.879-2.577zm-6.217 6.588l1.926.642-1.154 2.131a1 1 0 0 1-1.809-.846l.05-.106.987-1.821zM10.024 4.12a1 1 0 0 1 1.356.403L12 5.669l.62-1.145a1.001 1.001 0 0 1 1.76.952L13.136 7.77l-2.303 4.253-.26.478h2.431l.495 2h-8a1 1 0 0 1 0-2h2.8l2.563-4.73L9.62 5.477a1 1 0 0 1 .402-1.355z"/></symbol><symbol viewBox="0 0 24 24" id="apps"><path d="M13.606 7.879L17 14.143h4a1.43 1.43 0 0 1 .138 2.85L21 17h-2.453l1.566 2.891a1.428 1.428 0 0 1-2.436 1.486l-.076-.126L15.298 17h-.012l-1.535-2.857h-.001l-1.4-2.583 1.255-3.681zm-8.88 9.41l2.751.918-1.649 3.044a1.429 1.429 0 0 1-2.573-1.236l.06-.124 1.41-2.602zM8.89 2.173a1.43 1.43 0 0 1 1.937.575l.886 1.637.887-1.637a1.428 1.428 0 1 1 2.513 1.36v.001l-1.776 3.276-3.29 6.075-.37.683h3.473L13.857 17H2.429a1.43 1.43 0 0 1 0-2.857h4l3.66-6.758-1.774-3.276a1.429 1.429 0 0 1 .576-1.936z"/></symbol><symbol viewBox="0 0 16 16" id="arrow-down-small-cap"><path fill-rule="evenodd" d="M7 10V3h2v7h2l-3 3-3-3z"/></symbol><symbol viewBox="0 0 16 16" id="arrow-down"><path fill-rule="evenodd" d="M9.84 13.43a1.86 1.86 0 0 1-2.68 0L2.37 8.499a1.316 1.316 0 0 1-.37-.92c0-.332.123-.665.37-.919a1.237 1.237 0 0 1 1.786 0L7.2 9.794V2.3a1.3 1.3 0 0 1 2.6 0v7.494l3.044-3.134a1.237 1.237 0 0 1 1.786 0 1.327 1.327 0 0 1 0 1.839l-4.79 4.93z"/></symbol><symbol viewBox="0 0 16 16" id="arrow-left"><path fill-rule="evenodd" d="M2.57 8.84a1.858 1.858 0 0 1 0-2.68l4.931-4.79c.254-.247.587-.37.92-.37.332 0 .665.123.919.37a1.237 1.237 0 0 1 0 1.786L6.206 6.2H13.7a1.3 1.3 0 0 1 0 2.6H6.206l3.134 3.044a1.237 1.237 0 0 1 0 1.786 1.327 1.327 0 0 1-1.839 0l-4.93-4.79z"/></symbol><symbol viewBox="0 0 16 16" id="arrow-right"><path fill-rule="evenodd" d="M14.43 6.16L9.499 1.37a1.327 1.327 0 0 0-1.839 0 1.237 1.237 0 0 0 0 1.786L10.794 6.2H3.3a1.3 1.3 0 1 0 0 2.6h7.494L7.66 11.844a1.237 1.237 0 0 0 0 1.786c.254.247.587.37.92.37.332 0 .665-.123.919-.37l4.93-4.79a1.858 1.858 0 0 0 0-2.68"/></symbol><symbol viewBox="0 0 16 16" id="arrow-up-small-cap"><path fill-rule="evenodd" d="M9 6v7H7V6H5l3-3 3 3z"/></symbol><symbol viewBox="0 0 16 16" id="arrow-up"><path fill-rule="evenodd" d="M7.16 1.57a1.86 1.86 0 0 1 2.68 0l4.79 4.931c.247.254.37.587.37.92 0 .332-.123.665-.37.919a1.237 1.237 0 0 1-1.786 0L9.8 5.206V12.7a1.3 1.3 0 0 1-2.6 0V5.206L4.156 8.34a1.237 1.237 0 0 1-1.786 0 1.327 1.327 0 0 1 0-1.839l4.79-4.93z"/></symbol><symbol viewBox="0 0 24 24" id="atom"><path d="M12 11a1 1 0 1 1 0 2 1 1 0 0 1 0-2zM3.807 3.807C5.313 2.302 8.577 2.975 12 5.218c3.422-2.243 6.687-2.916 8.193-1.41 1.505 1.505.832 4.77-1.411 8.192 2.243 3.422 2.916 6.687 1.41 8.193-1.505 1.505-4.77.832-8.192-1.411-3.422 2.243-6.687 2.916-8.193 1.41-1.505-1.505-.832-4.77 1.411-8.192-2.243-3.422-2.916-6.687-1.41-8.193zm11.92 4.465a30.477 30.477 0 0 1 1.78 1.98c1.454-2.243 1.98-4.17 1.19-4.95-.779-.79-2.706-.263-4.949 1.19a30.477 30.477 0 0 1 1.98 1.78zm-7.455 7.456a30.477 30.477 0 0 1-1.78-1.98c-1.453 2.243-1.98 4.17-1.19 4.95.78.79 2.707.263 4.95-1.19a30.477 30.477 0 0 1-1.98-1.78zM5.302 5.303c-.79.779-.263 2.706 1.19 4.949a30.477 30.477 0 0 1 1.78-1.98 30.477 30.477 0 0 1 1.98-1.78c-2.243-1.453-4.17-1.98-4.95-1.19zm4.466 8.93A29.596 29.596 0 0 0 12 16.242c.737-.6 1.495-1.273 2.232-2.01A29.596 29.596 0 0 0 16.244 12a29.596 29.596 0 0 0-2.012-2.232A29.596 29.596 0 0 0 12 7.756c-.737.6-1.495 1.274-2.232 2.012A29.596 29.596 0 0 0 7.756 12c.6.737 1.274 1.495 2.012 2.232zm8.93 4.464c.79-.779.263-2.706-1.19-4.949a30.477 30.477 0 0 1-1.78 1.98 30.477 30.477 0 0 1-1.98 1.78c2.243 1.453 4.17 1.98 4.95 1.19z"/></symbol><symbol viewBox="0 0 24 24" id="aws"><path fill-rule="evenodd" d="M1 6l10 3.006v14.997l-10-3V6zm22 0v15.003l-10 3V9.006L23 6zM12 1l10 3-10 3L2 4l10-3z"/></symbol><symbol viewBox="0 0 24 24" id="badge-approval"><path d="M15.4 1.54l1.89 3.18 3.61.82-.34 3.68L23 12l-2.44 2.78.34 3.68-3.61.82-1.89 3.18L12 21l-3.4 1.47-1.89-3.18-3.61-.82.34-3.69L1 12l2.44-2.79-.34-3.68 3.61-.81L8.6 1.54 12 3l3.4-1.46zm2.322 5.584a.8.8 0 0 0-.997.113l-6.288 6.427-1.877-1.753a.944.944 0 0 0-1.23-.043.869.869 0 0 0-.175 1.176l2.43 3.513c.065.094.147.177.24.245.458.33 1.104.238 1.444-.205l6.61-8.617a.586.586 0 0 0-.157-.856z"/></symbol><symbol viewBox="0 0 24 24" id="badge-bad"><path d="M15.4 1.54l1.89 3.18 3.61.82-.34 3.68L23 12l-2.44 2.78.34 3.68-3.61.82-1.89 3.18L12 21l-3.4 1.47-1.89-3.18-3.61-.82.34-3.69L1 12l2.44-2.79-.34-3.68 3.61-.81L8.6 1.54 12 3l3.4-1.46zM8.71 7.293a1 1 0 0 0-1.414 1.414l3.29 3.292-3.293 3.294a1 1 0 0 0 1.414 1.414l3.294-3.293 3.292 3.293a1 1 0 1 0 1.414-1.414l-3.292-3.294 3.292-3.292a1 1 0 1 0-1.414-1.414L12 10.585z"/></symbol><symbol viewBox="0 0 24 24" id="bar-chart"><path fill-rule="evenodd" d="M2 3v17a1 1 0 0 0 1 1h19v-7.5a.5.5 0 0 0-.5-.5h-3a.5.5 0 0 0-.5.5V19h-2V3.5a.5.5 0 0 0-.5-.5h-3a.5.5 0 0 0-.5.5V19h-2V9.5a.5.5 0 0 0-.5-.5h-3a.5.5 0 0 0-.5.5V19H4V3a1 1 0 1 0-2 0z"/></symbol><symbol viewBox="0 0 24 24" id="barcode"><path d="M3 6h2v12H3V6zm3 0h1v12H6V6zm2 0h3v12H8V6zm4 0h1v12h-1V6zm3 0h2v12h-2V6zm3 0h3v12h-3V6z"/></symbol><symbol viewBox="0 0 24 24" id="battery-charging"><path fill-rule="evenodd" d="M9 6v2H4a1 1 0 0 0-1 1v6a1 1 0 0 0 1 1h3v2H3a2 2 0 0 1-2-2V8a2 2 0 0 1 2-2h6zm10 0a2 2 0 0 1 2 2v8a2 2 0 0 1-2 2h-6v-2h5a1 1 0 0 0 1-1V9a1 1 0 0 0-1-1h-3V6zm-7 0l-1 5h4l-5 7 1-5H7l5-7zm10 3.5c1.333.331 2 1.164 2 2.5s-.667 2.169-2 2.5z"/></symbol><symbol viewBox="0 0 24 24" id="battery-empty"><path fill-rule="evenodd" d="M18.436 6c.892 0 1.215.093 1.54.267.327.174.583.43.757.756.174.326.267.65.267 1.54v6.873c0 .892-.093 1.215-.267 1.54a1.81 1.81 0 0 1-.756.757c-.326.174-.65.267-1.54.267H3.563c-.892 0-1.215-.093-1.54-.267a1.817 1.817 0 0 1-.757-.756c-.174-.326-.267-.65-.267-1.54V8.563c0-.892.093-1.215.267-1.54a1.81 1.81 0 0 1 .756-.757c.326-.174.65-.267 1.54-.267h14.873zm-.718 2H4.282c-.446 0-.607.046-.77.134a.909.909 0 0 0-.378.378c-.077.142-.122.284-.132.616L3 9.282v5.436c0 .446.046.607.134.77a.906.906 0 0 0 .378.378c.142.077.284.122.616.132l.154.002h13.436c.446 0 .607-.046.77-.134a.909.909 0 0 0 .378-.378c.077-.142.122-.284.132-.616l.002-.154V9.282c0-.446-.046-.607-.134-.77a.909.909 0 0 0-.378-.378c-.163-.088-.324-.134-.77-.134zM6 9v6H4.641c-.223 0-.304-.023-.385-.067a.454.454 0 0 1-.19-.189C4.024 14.663 4 14.582 4 14.36V9.641c0-.223.023-.304.067-.385a.454.454 0 0 1 .189-.19C4.337 9.024 4.418 9 4.64 9H6zm16 .5c1.333.331 2 1.164 2 2.5s-.667 2.169-2 2.5v-5z"/></symbol><symbol viewBox="0 0 24 24" id="battery-full"><path fill-rule="evenodd" d="M18.436 6c.892 0 1.215.093 1.54.267.327.174.583.43.757.756.174.326.267.65.267 1.54v6.873c0 .892-.093 1.215-.267 1.54a1.81 1.81 0 0 1-.756.757c-.326.174-.65.267-1.54.267H3.563c-.892 0-1.215-.093-1.54-.267a1.817 1.817 0 0 1-.757-.756c-.174-.326-.267-.65-.267-1.54V8.563c0-.892.093-1.215.267-1.54a1.81 1.81 0 0 1 .756-.757c.326-.174.65-.267 1.54-.267h14.873zm-.718 2H4.282c-.446 0-.607.046-.77.134a.909.909 0 0 0-.378.378c-.077.142-.122.284-.132.616L3 9.282v5.436c0 .446.046.607.134.77a.906.906 0 0 0 .378.378c.142.077.284.122.616.132l.154.002h13.436c.446 0 .607-.046.77-.134a.909.909 0 0 0 .378-.378c.077-.142.122-.284.132-.616l.002-.154V9.282c0-.446-.046-.607-.134-.77a.909.909 0 0 0-.378-.378c-.163-.088-.324-.134-.77-.134zm-.359 1c.223 0 .304.023.385.067a.454.454 0 0 1 .19.189c.043.081.066.162.066.385v4.718c0 .223-.023.304-.067.385a.454.454 0 0 1-.189.19c-.081.043-.162.066-.385.066H4.641c-.223 0-.304-.023-.385-.067a.454.454 0 0 1-.19-.189C4.024 14.663 4 14.582 4 14.36V9.641c0-.223.023-.304.067-.385a.454.454 0 0 1 .189-.19C4.337 9.024 4.418 9 4.64 9h12.718zM22 9.5c1.333.331 2 1.164 2 2.5s-.667 2.169-2 2.5v-5z"/></symbol><symbol viewBox="0 0 24 24" id="battery-half"><path fill-rule="evenodd" d="M18.436 6c.892 0 1.215.093 1.54.267.327.174.583.43.757.756.174.326.267.65.267 1.54v6.873c0 .892-.093 1.215-.267 1.54a1.81 1.81 0 0 1-.756.757c-.326.174-.65.267-1.54.267H3.563c-.892 0-1.215-.093-1.54-.267a1.817 1.817 0 0 1-.757-.756c-.174-.326-.267-.65-.267-1.54V8.563c0-.892.093-1.215.267-1.54a1.81 1.81 0 0 1 .756-.757c.326-.174.65-.267 1.54-.267h14.873zm-.718 2H4.282c-.446 0-.607.046-.77.134a.909.909 0 0 0-.378.378c-.077.142-.122.284-.132.616L3 9.282v5.436c0 .446.046.607.134.77a.906.906 0 0 0 .378.378c.142.077.284.122.616.132l.154.002h13.436c.446 0 .607-.046.77-.134a.909.909 0 0 0 .378-.378c.077-.142.122-.284.132-.616l.002-.154V9.282c0-.446-.046-.607-.134-.77a.909.909 0 0 0-.378-.378c-.163-.088-.324-.134-.77-.134zM12 9v6H4.641c-.223 0-.304-.023-.385-.067a.454.454 0 0 1-.19-.189C4.024 14.663 4 14.582 4 14.36V9.641c0-.223.023-.304.067-.385a.454.454 0 0 1 .189-.19C4.337 9.024 4.418 9 4.64 9H12zm10 .5c1.333.331 2 1.164 2 2.5s-.667 2.169-2 2.5v-5z"/></symbol><symbol viewBox="0 0 24 24" id="battery-mostly-full"><path fill-rule="evenodd" d="M18.436 6c.892 0 1.215.093 1.54.267.327.174.583.43.757.756.174.326.267.65.267 1.54v6.873c0 .892-.093 1.215-.267 1.54a1.81 1.81 0 0 1-.756.757c-.326.174-.65.267-1.54.267H3.563c-.892 0-1.215-.093-1.54-.267a1.817 1.817 0 0 1-.757-.756c-.174-.326-.267-.65-.267-1.54V8.563c0-.892.093-1.215.267-1.54a1.81 1.81 0 0 1 .756-.757c.326-.174.65-.267 1.54-.267h14.873zm-.718 2H4.282c-.446 0-.607.046-.77.134a.909.909 0 0 0-.378.378c-.077.142-.122.284-.132.616L3 9.282v5.436c0 .446.046.607.134.77a.906.906 0 0 0 .378.378c.142.077.284.122.616.132l.154.002h13.436c.446 0 .607-.046.77-.134a.909.909 0 0 0 .378-.378c.077-.142.122-.284.132-.616l.002-.154V9.282c0-.446-.046-.607-.134-.77a.909.909 0 0 0-.378-.378c-.163-.088-.324-.134-.77-.134zM16 9v6H4.641c-.223 0-.304-.023-.385-.067a.454.454 0 0 1-.19-.189C4.024 14.663 4 14.582 4 14.36V9.641c0-.223.023-.304.067-.385a.454.454 0 0 1 .189-.19C4.337 9.024 4.418 9 4.64 9H16zm6 .5c1.333.331 2 1.164 2 2.5s-.667 2.169-2 2.5v-5z"/></symbol><symbol viewBox="0 0 24 24" id="battery"><path fill-rule="evenodd" d="M18.436 6c.892 0 1.215.093 1.54.267.327.174.583.43.757.756.174.326.267.65.267 1.54v6.873c0 .892-.093 1.215-.267 1.54a1.81 1.81 0 0 1-.756.757c-.326.174-.65.267-1.54.267H3.563c-.892 0-1.215-.093-1.54-.267a1.817 1.817 0 0 1-.757-.756c-.174-.326-.267-.65-.267-1.54V8.563c0-.892.093-1.215.267-1.54a1.81 1.81 0 0 1 .756-.757c.326-.174.65-.267 1.54-.267h14.873zm-.718 2H4.282c-.446 0-.607.046-.77.134a.909.909 0 0 0-.378.378c-.077.142-.122.284-.132.616L3 9.282v5.436c0 .446.046.607.134.77a.906.906 0 0 0 .378.378c.142.077.284.122.616.132l.154.002h13.436c.446 0 .607-.046.77-.134a.909.909 0 0 0 .378-.378c.077-.142.122-.284.132-.616l.002-.154V9.282c0-.446-.046-.607-.134-.77a.909.909 0 0 0-.378-.378c-.163-.088-.324-.134-.77-.134zM16 9v6H4.641c-.223 0-.304-.023-.385-.067a.454.454 0 0 1-.19-.189C4.024 14.663 4 14.582 4 14.36V9.641c0-.223.023-.304.067-.385a.454.454 0 0 1 .189-.19C4.337 9.024 4.418 9 4.64 9H16zm6 .5c1.333.331 2 1.164 2 2.5s-.667 2.169-2 2.5v-5z"/></symbol><symbol viewBox="0 0 24 24" id="bell-disable"><path fill-rule="evenodd" d="M14 20c0 1.105-1.12 2-2.5 2S9 21.105 9 20zM4 3l2.906 2.906.001-.001L20 19l1 1-1 1-2-2H3v-1l2-2v-5.5c0-1.284.372-2.48 1.015-3.487L3.001 3.998 4 3zm7.5-1A1.5 1.5 0 0 1 13 3.5v.68c2.86.68 5 3.25 5 6.32V15L8.017 5.017A6.487 6.487 0 0 1 10 4.18V3.5A1.5 1.5 0 0 1 11.5 2z"/></symbol><symbol viewBox="0 0 24 24" id="bell-snooze"><path d="M15 10l-2.8 3H15v2h-5v-1.8l2.8-3.2H10V8h5v2zm-2.5 12c1.38 0 2.5-.895 2.5-2h-5c0 1.105 1.12 2 2.5 2zm6.5-6v-5.5c0-3.07-2.14-5.64-5-6.32V3.5a1.5 1.5 0 0 0-3 0v.68c-2.87.68-5 3.25-5 6.32V16l-2 2v1h17v-1l-2-2z"/></symbol><symbol viewBox="0 0 24 24" id="bell"><path d="M12.5 22c1.38 0 2.5-.895 2.5-2h-5c0 1.105 1.12 2 2.5 2zm6.5-6v-5.5c0-3.07-2.14-5.64-5-6.32V3.5a1.5 1.5 0 0 0-3 0v.68c-2.87.68-5 3.25-5 6.32V16l-2 2v1h17v-1l-2-2z"/></symbol><symbol viewBox="0 0 24 24" id="bomb"><path fill-rule="evenodd" d="M13.5 3c1.207 0 2.082.875 2.855 1.646C17.05 5.343 17.707 6 18.5 6a.5.5 0 1 1 0 1c-1.206 0-2.081-.875-2.854-1.646C14.95 4.657 14.293 4 13.5 4c-1.2 0-1.934.891-2.273 2H12.5a.5.5 0 0 1 .5.5v.936c2.912 1.03 5 3.8 5 7.064a7.499 7.499 0 1 1-15 0c0-3.264 2.09-6.034 5-7.064V6.5a.5.5 0 0 1 .5-.5h1.687c.398-1.621 1.466-3 3.313-3zm-.841 5.526l-.318.948c.109.037 2.66.933 2.66 3.526h1c0-2.658-2.187-4.089-3.343-4.474zM19 7.908V10h-1V7.908c.157.056.325.092.5.092.171-.002.34-.033.5-.092zm.85-.765l1.064 1.064-.707.707-1.064-1.064c.311-.147.56-.397.707-.707zM23 6v1h-3.09c.056-.157.091-.324.091-.5 0-.132-.02-.259-.053-.38L19.909 6H23zm-2.352-2.353l.707.707-1.505 1.503a1.49 1.49 0 0 0-.577-.638l-.13-.069 1.505-1.503zM19 2v3.092h-1V2h1z"/></symbol><symbol viewBox="0 0 24 24" id="box-opening"><path fill-rule="evenodd" d="M21 9v12H5V9h16zm-5.5 3h-5a.5.5 0 0 0-.5.5V14h6v-1.5a.5.5 0 0 0-.5-.5zm6-9.293a.5.5 0 0 1 .354.147l1.792 1.792a.5.5 0 0 1 0 .708l-1.792 1.792A.5.5 0 0 1 21 6.793V6c-.66 0-1.108.078-1.642.404-.641.391-1.04.887-1.36 1.596H16c0-1 .955-2.045 1.62-2.564.774-.603 1.744-.914 2.794-1.166.19-.046.386-.086.586-.12v-.943a.5.5 0 0 1 .5-.5zM18.764.974l.45 1.95a1 1 0 0 1-.75 1.198l-15.59 3.6a1 1 0 0 1-1.2-.75l-.449-1.949a1 1 0 0 1 .75-1.199L17.564.225a1 1 0 0 1 1.199.75z"/></symbol><symbol viewBox="0 0 24 24" id="boxed-bar-chart"><path d="M19 3a2 2 0 0 1 2 2v14a2 2 0 0 1-2 2H5a2 2 0 0 1-2-2V5c0-1.11.89-2 2-2h14zm-1 2H6a1 1 0 0 0-1 1v12a1 1 0 0 0 1 1h12a1 1 0 0 0 1-1V6a1 1 0 0 0-1-1zm-1 8v4h-2v-4h2zm-4-6v10h-2V7h2zm-4 3v7H7v-7h2z"/></symbol><symbol viewBox="0 0 24 24" id="boy-sad"><path d="M12 1C5.925 1 1 5.925 1 12A11 11 0 1 0 12 1zM8.753 5A10.922 10.922 0 0 0 20.14 9.324c.23.774.361 1.602.361 2.462 0 4.804-3.927 8.714-8.75 8.714S3 16.59 3 11.786c0-.316 0-.632.055-.937A10.98 10.98 0 0 0 8.753 5zM15 15.5h-4a1 1 0 0 0 0 2h4a1 1 0 0 0 0-2zm-7.5-5a1.5 1.5 0 1 0 0 3 1.5 1.5 0 0 0 0-3zm8 0a1.5 1.5 0 1 0 0 3 1.5 1.5 0 0 0 0-3z"/></symbol><symbol viewBox="0 0 24 24" id="briefcase"><path fill-rule="evenodd" d="M16 4a1 1 0 0 1 1 1v3h4a1 1 0 0 1 1 1v11a1 1 0 0 1-1 1H3a1 1 0 0 1-1-1V9a1 1 0 0 1 1-1h4V5a1 1 0 0 1 1-1h8zM5 10H4v9h1v-9zm15 0h-1v9h1v-9zm-5.5-4h-5a.5.5 0 0 0-.5.5V8h6V6.5a.5.5 0 0 0-.5-.5z"/></symbol><symbol viewBox="0 0 24 24" id="bug"><path fill-rule="evenodd" d="M18.326 18H20v2h-3.101A6.977 6.977 0 0 1 12 22a6.977 6.977 0 0 1-4.899-2H4v-2h1.674A6.973 6.973 0 0 1 5 15H3v-2h2v-2c0-.34.024-.673.07-1H3V8h2.674a7.026 7.026 0 0 1 1.901-2.425L5.5 3.5 7 2l2.47 2.47A6.983 6.983 0 0 1 12 4c.892 0 1.745.167 2.53.47L17 2l1.5 1.5-2.075 2.075A7.026 7.026 0 0 1 18.326 8H21v2h-2.07c.046.327.07.66.07 1v2h2v2h-2c0 1.074-.242 2.09-.674 3zM9 15v2h6v-2H9zm0-5v2h6v-2H9z"/></symbol><symbol viewBox="0 0 24 24" id="building-wifi"><path d="M9 7H7V5h2v2zm0 4H7V9h2v2zm0 4H7v-2h2v2zm0 4H7v-2h2v2zM5 7H3V5h2v2zm0 4H3V9h2v2zm0 4H3v-2h2v2zm0 4H3v-2h2v2zm6 2V3H1v18h10zm2-18c6.075 0 11 4.925 11 11h-2a9 9 0 0 0-9-9V3zm0 4a7 7 0 0 1 7 7h-2a5 5 0 0 0-5-5V7zm0 7v-3a3 3 0 0 1 3 3h-3z"/></symbol><symbol viewBox="0 0 24 24" id="buildings"><path d="M18 15h-2v2h2v-2zm0-4h-2v2h2v-2zm2 8h-8v-2h2v-2h-2v-2h2v-2h-2V9h8v10zM10 7H8V5h2v2zm0 4H8V9h2v2zm0 4H8v-2h2v2zm0 4H8v-2h2v2zM6 7H4V5h2v2zm0 4H4V9h2v2zm0 4H4v-2h2v2zm0 4H4v-2h2v2zm6-12V3H2v18h20V7H12z"/></symbol><symbol viewBox="0 0 24 24" id="calendar-clock"><path d="M15 14h1.5v2.82l2.44 1.41-.75 1.3L15 17.69V14zm4-5H5v11h4.67c-.43-.91-.67-1.93-.67-3a7 7 0 0 1 7-7c1.07 0 2.09.24 3 .67V9zM5 22a2 2 0 0 1-2-2V6c0-1.11.89-2 2-2h1V2h2v2h8V2h2v2h1a2 2 0 0 1 2 2v6.1c1.24 1.26 2 2.99 2 4.9a7 7 0 0 1-7 7c-1.91 0-3.64-.76-4.9-2H5zm11-9.85a4.85 4.85 0 1 0 0 9.7 4.85 4.85 0 0 0 0-9.7z"/></symbol><symbol viewBox="0 0 24 24" id="calendar"><path d="M14 15H7v2h7v-2zm5 5H5V9h14v11zm0-16h-1V2h-2v2H8V2H6v2H5a2 2 0 0 0-2 2v14a2 2 0 0 0 2 2h14a2 2 0 0 0 2-2V6a2 2 0 0 0-2-2zm-2 7H7v2h10v-2z"/></symbol><symbol viewBox="0 0 24 24" id="camera-security"><path d="M17 4.266l-8.65 5c-.96.56-1.28 1.8-.73 2.74l1.5 2.59a1.99 1.99 0 0 0 2.73.74l1.8-1.04c.27.46.67.83 1.16 1.04v1.77c0 1.09.89 1.96 2 1.96h4.21a.98.98 0 0 0 0-1.96h-4.21v-1.77a2.5 2.5 0 0 0 1.5-2.27c0-.46-.12-.89-.34-1.27l2.53-1.46c.97-.56 1.3-1.77.74-2.74l-1.5-2.59c-.34-.6-.95-.94-1.59-1-.38-.03-.78.06-1.15.26zm-10.78 7.97l-4.22.7.75 1.3 2 3.46.75 1.3 2.72-3.3-2-3.46z"/></symbol><symbol viewBox="0 0 24 24" id="camera"><path fill-rule="evenodd" d="M14 4l2 2h1a4 4 0 0 1 4 4v8a2 2 0 0 1-2 2H5a2 2 0 0 1-2-2v-8a4 4 0 0 1 4-4h1l2-2h4zm-2 4a5 5 0 1 0 .001 10.001A5 5 0 0 0 12 8zm0 2a3 3 0 1 1 0 6 3 3 0 0 1 0-6z"/></symbol><symbol viewBox="0 0 16 16" id="caret-down"><path fill-rule="evenodd" d="M4.625 6.781C4.28 6.35 4.453 6 4.997 6h6.006c.55 0 .722.344.372.781l-3.061 3.827c-.173.216-.456.214-.628 0L4.625 6.78z"/></symbol><symbol viewBox="0 0 16 16" id="caret-left"><path fill-rule="evenodd" d="M10 5.04v5.92a.5.5 0 0 1-.812.39l-3.7-2.96a.5.5 0 0 1 0-.78l3.7-2.96a.5.5 0 0 1 .812.39z"/></symbol><symbol viewBox="0 0 16 16" id="caret-right"><path fill-rule="evenodd" d="M6 10.96V5.04a.5.5 0 0 1 .812-.39l3.7 2.96a.5.5 0 0 1 0 .78l-3.7 2.96A.5.5 0 0 1 6 10.96z"/></symbol><symbol viewBox="0 0 16 16" id="caret-up"><path fill-rule="evenodd" d="M10.96 10H5.04a.5.5 0 0 1-.39-.812l2.96-3.7a.5.5 0 0 1 .78 0l2.96 3.7a.5.5 0 0 1-.39.812z"/></symbol><symbol viewBox="0 0 24 24" id="centos"><path fill-rule="evenodd" d="M11.513 3.32l2.692 2.692h3.808V9.82l2.692 2.692-2.692 2.692v3.808h-3.808l-2.692 2.692-2.693-2.692H5.013v-3.808L2.32 12.512 5.013 9.82V6.012H8.82l2.693-2.692zm0 11.313l-.5.5v3.879h-.779l1.279 1.278 1.278-1.278h-.778v-3.879l-.5-.5zm2.207-.621h-.707v.707l2.742 2.743-.55.55h1.808v-1.808l-.551.551-2.742-2.743zm-.707 2.121v1.879h.778l.55-.55-1.328-1.329zm-3 0l-1.329 1.329.55.55h.779v-1.879zm0-2.121h-.707l-2.744 2.743-.549-.551v1.808H7.82l-.551-.55 2.744-2.743v-.707zm-2.122 0H6.013v.778l.549.55 1.329-1.328zm9.122 0h-1.879l1.328 1.328.551-.55v-.778zm-12-2.778l-1.279 1.278 1.279 1.278v-.778h3.879l.5-.5-.5-.5H5.013v-.778zm13 0v.778h-3.879l-.5.5.5.5h3.879v.778l1.278-1.278-1.278-1.278zm-6 .071l-.5.5-.5-.5v.707h-.707l.5.5-.5.5h.707v.707l.5-.5.5.5v-.707h.707l-.5-.5.5-.5h-.707v-.707zM6.562 9.683l-.549.551v.778h1.879l-1.33-1.329zM7.82 7.012H6.013V8.82l.549-.551 2.744 2.743h.707v-.707L7.269 7.562l.551-.55zm9.193 0h-1.808l.55.55-2.742 2.743v.707h.707l2.742-2.743.551.551V7.012zm-.551 2.671l-1.328 1.329h1.879v-.778l-.551-.551zm-4.949-4.949l-1.279 1.278h.779v3.879l.5.5.5-.5V6.012h.778l-1.278-1.278zm-1.5 2.278h-.779l-.55.55 1.329 1.329V7.012zm3.778 0h-.778v1.879l1.328-1.329-.55-.55z"/></symbol><symbol viewBox="0 0 24 24" id="chain-link"><path d="M12.935 11.26a1 1 0 1 1 1.2-1.6 5.336 5.336 0 0 1 .572 8.043l-1.964 1.964a4.536 4.536 0 1 1-6.415-6.414l.5-.5a1 1 0 0 1 1.415 1.414l-.5.5a2.536 2.536 0 0 0 3.585 3.586l1.965-1.965a3.336 3.336 0 0 0-.358-5.028zm-.87 1.476a1 1 0 0 1-1.2 1.6 5.336 5.336 0 0 1-.572-8.043l1.965-1.965a4.536 4.536 0 1 1 6.414 6.415l-.5.5a1 1 0 1 1-1.414-1.415l.5-.5a2.536 2.536 0 1 0-3.586-3.585l-1.964 1.964a3.336 3.336 0 0 0 .357 5.029z"/></symbol><symbol viewBox="0 0 24 24" id="check-circle"><path fill-rule="evenodd" d="M12 2c5.523 0 10 4.477 10 10s-4.477 10-10 10S2 17.523 2 12 6.477 2 12 2zm5.722 5.124a.8.8 0 0 0-.997.113l-6.288 6.427-1.877-1.753a.944.944 0 0 0-1.23-.043.869.869 0 0 0-.175 1.176l2.43 3.513c.065.094.147.177.24.245.458.33 1.104.238 1.444-.205l6.61-8.617a.586.586 0 0 0-.157-.856z"/></symbol><symbol viewBox="0 0 24 24" id="check"><path fill-rule="evenodd" d="M4.48 12.301a1.342 1.342 0 0 1 1.79.066L9 14.996l9.145-9.641c.38-.4.99-.47 1.45-.169a.896.896 0 0 1 .228 1.284l-9.614 12.925a1.5 1.5 0 0 1-2.45-.06l-3.533-5.269a1.33 1.33 0 0 1 .254-1.765z"/></symbol><symbol viewBox="0 0 24 24" id="checklist"><path fill-rule="evenodd" d="M13 1a1 1 0 0 1 1 1v1h3.805C18.465 3 19 3.535 19 4.195v.81c.22-.022.449.029.646.156a.772.772 0 0 1 .199 1.113l-8.412 11.202a1.32 1.32 0 0 1-2.143-.052l-3.093-4.567a1.146 1.146 0 0 1 .223-1.53 1.183 1.183 0 0 1 1.566.058l2.388 2.278L17 6.745V5h-3v1a1 1 0 0 1-1 1H7a1 1 0 0 1-1-1V5H3v16h14v-8.5l2-3v12.305c0 .66-.535 1.195-1.195 1.195H2.195c-.66 0-1.194-.535-1.194-1.195V4.195A1.194 1.194 0 0 1 2.196 3H6V2a1 1 0 0 1 1-1h6zm-1 2H8v1h4V3z"/></symbol><symbol viewBox="0 0 16 16" id="chevron-down"><path d="M3.768 4.36L8 9.438l4.232-5.078a1 1 0 1 1 1.536 1.28l-5 6a1 1 0 0 1-1.536 0l-5-6a1 1 0 1 1 1.536-1.28z"/></symbol><symbol viewBox="0 0 16 16" id="chevron-left"><path d="M11.64 3.768a1 1 0 1 0-1.28-1.536l-6 5a1 1 0 0 0 0 1.536l6 5a1 1 0 0 0 1.28-1.536L6.562 8l5.078-4.232z"/></symbol><symbol viewBox="0 0 16 16" id="chevron-right"><path d="M4.36 12.232L9.438 8 4.36 3.768a1 1 0 0 1 1.28-1.536l6 5a1 1 0 0 1 0 1.536l-6 5a1 1 0 0 1-1.28-1.536z"/></symbol><symbol viewBox="0 0 16 16" id="chevron-up"><path d="M12.232 11.64L8 6.562 3.768 11.64a1 1 0 1 1-1.536-1.28l5-6a1 1 0 0 1 1.536 0l5 6a1 1 0 0 1-1.536 1.28z"/></symbol><symbol viewBox="0 0 24 24" id="circle-check"><path d="M12 19a7 7 0 1 0 0-14 7 7 0 0 0 0 14zm0-16a9 9 0 1 1 0 18 9 9 0 0 1 0-18zm4.772 5.1c-.247-.199-.602-.124-.815.09l-4.107 4.104-1.038 1.037-1.535-1.402a.786.786 0 0 0-1.007-.035.685.685 0 0 0-.143.941l1.988 2.81a.82.82 0 0 0 .197.197.874.874 0 0 0 1.18-.165c3.295-4.19 5.064-6.454 5.307-6.793l.025-.036c.149-.238.195-.55-.052-.749z"/></symbol><symbol viewBox="0 0 24 24" id="circle-exclamation"><path d="M12 3a9 9 0 1 1 0 18 9 9 0 0 1 0-18zm0 2a7 7 0 1 0 0 14 7 7 0 0 0 0-14zm0 10a1 1 0 1 1 0 2 1 1 0 0 1 0-2zm0-7.333c.519 0 .94.42.94.94l-.002.058-.23 3.67a.71.71 0 0 1-1.416 0l-.23-3.67A.94.94 0 0 1 12 7.667z"/></symbol><symbol viewBox="0 0 24 24" id="circle-lightning"><path d="M12 3c2.475 0 4.59.9 6.345 2.655S21 9.525 21 12c0 2.475-.9 4.59-2.655 6.345S14.475 21 12 21c-2.475 0-4.59-.9-6.345-2.655S3 14.475 3 12c0-2.475.9-4.59 2.655-6.345S9.525 3 12 3zm0 2c-1.927 0-3.539.677-4.93 2.07C5.676 8.46 5 10.072 5 12c0 1.927.677 3.539 2.07 4.93C8.46 18.324 10.072 19 12 19c1.927 0 3.539-.677 4.93-2.07C18.324 15.54 19 13.928 19 12c0-1.927-.677-3.539-2.07-4.93C15.54 5.676 13.928 5 12 5zm1 1l-1 5h4l-5 7 1-5H8l5-7z"/></symbol><symbol viewBox="0 0 24 24" id="circle-slash"><path fill-rule="evenodd" d="M5.528 7.296a8 8 0 0 0 11.176 11.176L5.528 7.296zm1.768-1.768l11.176 11.176A8 8 0 0 0 7.296 5.528zM12 2a10 10 0 0 1 10 10c0 5.523-4.477 10-10 10-5.53 0-10-4.5-10-10C2 6.477 6.477 2 12 2z"/></symbol><symbol viewBox="0 0 24 24" id="clock-filled"><path fill-rule="evenodd" d="M12 2c5.523 0 10 4.477 10 10s-4.477 10-10 10C6.478 22 2 17.523 2 12S6.478 2 12 2zm0 4l-.117.006A.999.999 0 0 0 11 7l.004 5.173a2 2 0 0 0 .586 1.412l3.652 3.652a1 1 0 1 0 1.414-1.414l-3.364-3.364a1 1 0 0 1-.293-.707V7a1 1 0 0 0-1-1z"/></symbol><symbol viewBox="0 0 24 24" id="clock-reoccurring"><g fill-rule="evenodd"><path d="M21.54 9h-2.122A8.003 8.003 0 0 0 4 12a8 8 0 1 0 16-.045.944.944 0 0 1 .944-.955H21a1 1 0 0 1 1 1c0 5.523-4.477 10-10 10-5.53 0-10-4.5-10-10C2 6.477 6.477 2 12 2a10 10 0 0 1 9.54 7zm-8.247 3.459l3.364 3.364a1 1 0 0 1-1.414 1.414l-3.652-3.652a2 2 0 0 1-.586-1.412L11.001 7A1 1 0 1 1 13 7v4.752a1 1 0 0 0 .293.707z"/><path d="M16 9l6-6v6z"/></g></symbol><symbol viewBox="0 0 24 24" id="clock"><path fill-rule="evenodd" d="M12 2a10 10 0 0 1 10 10c0 5.523-4.477 10-10 10-5.53 0-10-4.5-10-10C2 6.477 6.477 2 12 2zm0 2a8 8 0 1 0 0 16 8 8 0 0 0 0-16zm0 2a1 1 0 0 1 1 1v4.752a1 1 0 0 0 .293.707l3.364 3.364a1 1 0 0 1-1.414 1.414l-3.652-3.652a2 2 0 0 1-.586-1.412L11.001 7a.999.999 0 0 1 .882-.994l.116-.007L12 6z"/></symbol><symbol viewBox="0 0 24 24" id="collapse"><path d="M14 14h5v2h-3v3h-2v-5zm-9 0h5v5H8v-3H5v-2zm3-9h2v5H5V8h3V5zm11 3v2h-5V5h2v3h3z"/></symbol><symbol viewBox="0 0 24 24" id="collection"><path fill-rule="evenodd" d="M21 1a2 2 0 0 1 2 2v18a2 2 0 0 1-2 2H3a2 2 0 0 1-2-2V3a2 2 0 0 1 2-2h18zm0 2H3v18h18V3zM9 15v4H5v-4h4zm5 0v4h-4v-4h4zm-5-5v4H5v-4h4zm5 0v4h-4v-4h4zm5 0v4h-4v-4h4zM9 5v4H5V5h4zm5 0v4h-4V5h4zm5 0v4h-4V5h4z"/></symbol><symbol viewBox="0 0 24 24" id="column-reveal"><path fill-rule="evenodd" d="M9 4a1 1 0 0 1 1 1v.978c-.3.401-.561.835-.776 1.297l-.152.352-.15.373.15.373c.24.595.553 1.148.928 1.649V20a1 1 0 0 1-1 1H3a1 1 0 0 1-1-1V5a1 1 0 0 1 1-1h6zM8 16H4v3h4v-3zm0-5H4v3h4v-3zm8-7c2.73 0 5.06 1.66 6 4-.94 2.34-3.27 4-6 4s-5.06-1.66-6-4c.94-2.34 3.27-4 6-4zm0 1.5a2.5 2.5 0 1 0 0 5 2.5 2.5 0 0 0 0-5zM8 6H4v3h4V6zm8 1c.56 0 1 .44 1 1s-.44 1-1 1-1-.44-1-1 .44-1 1-1z"/></symbol><symbol viewBox="0 0 24 24" id="command-prompt"><path fill-rule="evenodd" d="M24 19v3H12v-3h12zM0 2l12 7v2L0 18v-4l7-4-7-4V2z"/></symbol><symbol viewBox="0 0 16 16" id="command"><path d="M3.8 1a2.8 2.8 0 0 1 2.8 2.8v1.4h2.8V3.8a2.8 2.8 0 1 1 2.8 2.8h-1.4v2.8h1.4a2.8 2.8 0 1 1-2.8 2.8v-1.4H6.6v1.4a2.8 2.8 0 1 1-2.8-2.8h1.4V6.6H3.8a2.8 2.8 0 1 1 0-5.6zm7 11.2a1.4 1.4 0 1 0 1.4-1.4h-1.4v1.4zM9.4 6.6H6.6v2.8h2.8V6.6zm-5.6 4.2a1.4 1.4 0 1 0 1.4 1.4v-1.4H3.8zm1.4-7a1.4 1.4 0 1 0-1.4 1.4h1.4V3.8zm7 1.4a1.4 1.4 0 1 0-1.4-1.4v1.4h1.4z"/></symbol><symbol viewBox="0 0 16 16" id="commit-hash"><path d="M8 9a1 1 0 1 0 0-2 1 1 0 0 0 0 2zm0-4a3 3 0 1 1 0 6 3 3 0 0 1 0-6zM4 7v2H0V7h4zm12 0v2h-4V7h4z"/></symbol><symbol viewBox="0 0 24 24" id="cpu"><path d="M17 17H7V7h10v10zm4-6V9h-2V7a2 2 0 0 0-2-2h-2V3h-2v2h-2V3H9v2H7c-1.11 0-2 .89-2 2v2H3v2h2v2H3v2h2v2a2 2 0 0 0 2 2h2v2h2v-2h2v2h2v-2h2a2 2 0 0 0 2-2v-2h2v-2h-2v-2h2zm-8 2h-2v-2h2v2zm2-4H9v6h6V9z"/></symbol><symbol viewBox="0 0 24 24" id="credit-card"><path fill-rule="evenodd" d="M20 4H4c-1.11 0-2 .89-2 2v12a2 2 0 0 0 2 2h16a2 2 0 0 0 2-2V6a2 2 0 0 0-2-2zm0 14H4v-6h16v6zm-8-3v2H6v-2h6zm8-9v2H4V6h16z"/></symbol><symbol viewBox="0 0 24 24" id="csv"><path fill-rule="evenodd" d="M14 2l6 6v12a2 2 0 0 1-2 2H6a2 2 0 0 1-2-2V4a2 2 0 0 1 2-2h8zm0 10h-4v3h2.144c.149 1.782-.295 3-1.143 3v1.012c2.003.001 3.004-1.336 2.999-4.019V12zm-1-8.5V9h5.5L13 3.5z"/></symbol><symbol viewBox="0 0 24 24" id="database"><path fill-rule="evenodd" d="M12 2c4 0 8 1 8 2v16c0 1-4 2-8 2s-8-1-8-2V4c0-1 4-2 8-2zm6 14s-3 .8-6 .8-6-.8-6-.8v3.2s2 .8 6 .8c3.765 0 5.758-.709 5.98-.792L18 19.2zm0-5s-3 .8-6 .8-6-.8-6-.8v3.2s2 .8 6 .8c3.765 0 5.758-.709 5.98-.792L18 14.2zm0-5s-3 .8-6 .8S6 6 6 6v3.2s2 .8 6 .8 6-.8 6-.8z"/></symbol><symbol viewBox="0 0 24 24" id="diff"><path fill-rule="evenodd" d="M16.002 6L12 18.002h-2L14 6h2.002zM6.003 8.002a1 1 0 0 1 .992.882l.007.117V11H9a1 1 0 0 1 .117 1.993L9 13H7.002v2a1 1 0 0 1-.883.993L6.002 16a1 1 0 0 1-.995-.883L5 15v-2H3a1 1 0 0 1-.993-.883L2 12v-.011a1 1 0 0 1 .883-.993L3 10.989h2.004V9.001c0-.552.447-.999.999-.999zM21.004 12a1 1 0 0 1 0 2h-4.002a1 1 0 0 1 0-2z"/></symbol><symbol viewBox="0 0 24 24" id="docker"><path d="M19.304 6s2.087 1.8 1.566 3.6c1.043-.6 3.13 0 3.13 0 0 1.8-2.609 2.4-3.652 2.4-.522 3-4.174 9-12.522 9-6.502 0-7.785-4.063-7.825-8.764L0 12h16.174c2.609 0 3.13-1.2 3.13-1.2-.521-.6-1.043-2.4 0-4.8zM6.308 17c-.539.6-3.77.6-4.308.6.808.9 1.615 2.4 7 2.4-2.154-1.2-2.692-3-2.692-3zM7.5 14a1.5 1.5 0 0 0-1.475 1.776 1 1 0 1 1 1.2 1.199A1.5 1.5 0 1 0 7.5 14zM4 9v2H2V9h2zm3 0v2H5V9h2zm3 0v2H8V9h2zm3 0v2h-2V9h2zm3 0v2h-2V9h2zm-3-3v2h-2V6h2zm-3 0v2H8V6h2zM7 6v2H5V6h2zm6-3v2h-2V3h2z"/></symbol><symbol viewBox="0 0 24 24" id="download"><path d="M6 20h12a1 1 0 0 0 0-2H6a1 1 0 0 0 0 2zM17.793 9H15V4a1 1 0 0 0-1-1h-4a1 1 0 0 0-1 1v5H6.207a.5.5 0 0 0-.353.854l5.439 5.439a1 1 0 0 0 1.414 0l5.44-5.44A.5.5 0 0 0 17.792 9z"/></symbol><symbol viewBox="0 0 24 24" id="duplicate"><path d="M18 20H9V8h9v12zM9 6c-1.224 0-2 .796-2 2v12c0 1.204.776 2 2 2h9c1.224 0 2-.796 2-2V8c0-1.204-.776-2-2-2H9zm5-4H5c-1.232 0-2 .784-2 2v11a1 1 0 0 0 2 0V4h9a1 1 0 0 0 0-2z"/></symbol><symbol viewBox="0 0 16 16" id="ellipsis-horizontal"><path fill-rule="evenodd" d="M4 7a1 1 0 1 1 0 2 1 1 0 0 1 0-2zm4 0a1 1 0 1 1 0 2 1 1 0 0 1 0-2zm4 0a1 1 0 1 1 0 2 1 1 0 0 1 0-2z"/></symbol><symbol viewBox="0 0 16 16" id="ellipsis-vertical"><path d="M8 11a1 1 0 1 1 0 2 1 1 0 0 1 0-2zm0-4a1 1 0 1 1 0 2 1 1 0 0 1 0-2zm0-4a1 1 0 1 1 0 2 1 1 0 0 1 0-2z"/></symbol><symbol viewBox="0 0 24 24" id="ethernet"><path d="M7 15h2v3h2v-3h2v3h2v-3h2v3h2V9h-4V6H9v3H5v9h2v-3zM5 4h14a2 2 0 0 1 2 2v13a2 2 0 0 1-2 2H5a2 2 0 0 1-2-2V6a2 2 0 0 1 2-2z"/></symbol><symbol viewBox="0 0 24 24" id="expand"><path d="M5 5h5v2H7v3H5V5zm9 0h5v5h-2V7h-3V5zm3 9h2v5h-5v-2h3v-3zm-7 3v2H5v-5h2v3h3z"/></symbol><symbol viewBox="0 0 24 24" id="eye-slash"><path d="M11.83 9L15 12.16V12a3 3 0 0 0-3-3h-.17zm-4.3.8l1.55 1.55c-.05.21-.08.42-.08.65a3 3 0 0 0 3 3c.22 0 .44-.03.65-.08l1.55 1.55c-.67.33-1.41.53-2.2.53a5 5 0 0 1-5-5c0-.79.2-1.53.53-2.2zM2 4.27l2.28 2.28.45.45C3.08 8.3 1.78 10 1 12c1.73 4.39 6 7.5 11 7.5 1.55 0 3.03-.3 4.38-.84l.43.42L19.73 22 21 20.73 3.27 3 2 4.27zM12 7a5 5 0 0 1 5 5c0 .64-.13 1.26-.36 1.82l2.93 2.93c1.5-1.25 2.7-2.89 3.43-4.75-1.73-4.39-6-7.5-11-7.5-1.4 0-2.74.25-4 .7l2.17 2.15C10.74 7.13 11.35 7 12 7z"/></symbol><symbol viewBox="0 0 24 24" id="eye"><path d="M12 9.5a3 3 0 1 0 0 6 3 3 0 0 0 0-6zm0 8a5 5 0 1 1 0-10 5 5 0 0 1 0 10zM12 5C7 5 2.73 8.11 1 12.5 2.73 16.89 7 20 12 20s9.27-3.11 11-7.5C21.27 8.11 17 5 12 5z"/></symbol><symbol viewBox="0 0 24 24" id="feather"><path d="M4 21.952c0-1.362.102-1.787 1-3.142.898-1.356 3.3-3.143 5.6-3.143 1.5 0 2.3-.518 3.4-1.67l1.001-.993H9c1.3-1.362 3.2-2.001 5-2.001.1 0 .38-.092.48-.196L16 9h-4c1.3-1.362 3.203-2 5.003-2 .1 0 .273-.08.373-.184L19 5h-3c.6-.629 1.1-1 2-1h2l2-3C11.75.998 5.182 13.507 2.9 18.705A10.66 10.66 0 0 0 2 23h1.01L4 21.952z"/></symbol><symbol viewBox="0 0 24 24" id="file"><path d="M18.5 9L13 3.5V9h5.5zM14 2l6 6v12a2 2 0 0 1-2 2H6a2 2 0 0 1-2-2V4c0-1.11.89-2 2-2h8zm.5 14h-8a.5.5 0 0 0-.5.5v1a.5.5 0 0 0 .5.5h8a.5.5 0 0 0 .5-.5v-1a.5.5 0 0 0-.5-.5zm3.5-2.5v-1a.5.5 0 0 0-.5-.5h-11a.5.5 0 0 0-.5.5v1a.5.5 0 0 0 .5.5h11a.5.5 0 0 0 .5-.5z"/></symbol><symbol viewBox="0 0 24 24" id="folder-open"><path fill-rule="evenodd" d="M23 12l-3.861 7.724a.502.502 0 0 1-.448.276H4l3.724-7.447A1 1 0 0 1 8.618 12H23zM7.586 4a1 1 0 0 1 .707.293L10 6h7a1 1 0 0 1 1 1v3H7.618a1 1 0 0 0-.894.553L3 18H2a1 1 0 0 1-1-1V5a1 1 0 0 1 1-1h5.586z"/></symbol><symbol viewBox="0 0 24 24" id="freebsd"><path d="M19.817 5.268c.848.847-1.502 4.567-1.9 4.964-.398.396-1.408.032-2.256-.815-.848-.847-1.213-1.855-.816-2.251.398-.398 4.124-2.744 4.972-1.898zm-11.893.896a7.955 7.955 0 0 0-2.728 2.804C4.453 7.673 3.606 5.793 4.2 5.2c.587-.586 2.428.23 3.724.964zM5.232 13.04c0-3.838 3.128-6.96 6.971-6.96.553 0 1.093.062 1.617.186v.001c-.532.531-.507 1.426.055 2.432.24.474.6.956 1.04 1.394.083.084.17.165.24.228.95.904 1.995 1.444 2.792 1.444.506 0 .82-.209.995-.383l.026-.026a6.96 6.96 0 0 1 .208 1.684c0 3.838-3.128 6.959-6.973 6.959-3.843 0-6.971-3.121-6.971-6.959z"/></symbol><symbol viewBox="0 0 24 24" id="funnel-line"><path fill-rule="evenodd" d="M14 16v2h-4v-2h4zm3-5v2H7v-2h10zm3-5v2H4V6h16z"/></symbol><symbol viewBox="0 0 24 24" id="gauge-detailed"><path fill-rule="evenodd" d="M21 12c0-4.963-4.038-9-9-9-4.963 0-9 4.037-9 9a8.968 8.968 0 0 0 2.969 6.66A9.459 9.459 0 0 1 12 16.5c2.29 0 4.39.811 6.032 2.16A8.97 8.97 0 0 0 21 12m2 0a10.97 10.97 0 0 1-3.561 8.102A10.958 10.958 0 0 1 12 23a10.96 10.96 0 0 1-7.439-2.898A10.967 10.967 0 0 1 1 12C1 5.925 5.925 1 12 1s11 4.925 11 11m-8.086-6.41a1 1 0 0 0-1.324.496l-1.788 3.934A1.993 1.993 0 0 0 10 12a2 2 0 0 0 4 0c0-.433-.141-.832-.375-1.159l1.785-3.927a1 1 0 0 0-.496-1.324M7.5 10a1 1 0 1 0-2 0 1 1 0 0 0 2 0M11 6.5a1 1 0 1 0-2 0 1 1 0 0 0 2 0m6.5 4.5a1 1 0 1 1 0-2 1 1 0 0 1 0 2"/></symbol><symbol viewBox="0 0 24 24" id="gauge"><path fill-rule="evenodd" d="M22 13c0 2.76-1.12 5.26-2.93 7.07-.39.38-1.02.38-1.41-.01a.996.996 0 0 1 0-1.41A7.95 7.95 0 0 0 20 13c0-1-.19-2-.54-2.9L20.67 8C21.5 9.5 22 11.18 22 13M12 3c1.81 0 3.5.5 4.97 1.32l-2.1 1.21C14 5.19 13 5 12 5a8 8 0 0 0-8 8c0 2.21.89 4.21 2.34 5.65h.01c.39.39.39 1.02 0 1.41-.39.39-1.03.39-1.42.01A9.969 9.969 0 0 1 2 13C2 7.477 6.477 3 12 3m0 13a3 3 0 0 1-3-3c0-1.12.61-2.1 1.5-2.61l9.71-5.62-5.53 9.58c-.5.98-1.51 1.65-2.68 1.65"/></symbol><symbol viewBox="0 0 24 24" id="gear"><path d="M12 16a4 4 0 1 1 0-8 4 4 0 0 1 0 8zm7.64-3.03c.042-.32.073-.64.073-.97 0-.33-.031-.66-.072-1l2.169-1.63a.495.495 0 0 0 .123-.64l-2.056-3.46c-.123-.22-.4-.31-.627-.22l-2.56 1c-.534-.39-1.09-.73-1.737-.98l-.38-2.65a.516.516 0 0 0-.515-.42H9.946a.516.516 0 0 0-.514.42l-.38 2.65c-.648.25-1.203.59-1.738.98l-2.56-1a.512.512 0 0 0-.627.22L2.071 8.73a.484.484 0 0 0 .124.64L4.364 11c-.041.34-.072.67-.072 1 0 .33.03.65.072.97l-2.17 1.66a.484.484 0 0 0-.123.64l2.056 3.46c.124.22.401.3.627.22l2.56-1.01c.535.4 1.09.74 1.738.99l.38 2.65c.041.24.257.42.514.42h4.112c.257 0 .473-.18.514-.42l.38-2.65a7.536 7.536 0 0 0 1.738-.99l2.56 1.01c.226.08.504 0 .627-.22l2.056-3.46a.495.495 0 0 0-.123-.64l-2.17-1.66z"/></symbol><symbol viewBox="0 0 24 24" id="ghost"><path d="M12 2a9 9 0 0 0-9 9v11l3-3 3 3 3-3 3 3 3-3 3 3V11a9 9 0 0 0-9-9zM9 8a2 2 0 1 1 0 4 2 2 0 0 1 0-4zm6 0a2 2 0 1 1 0 4 2 2 0 0 1 0-4z"/></symbol><symbol viewBox="0 0 24 24" id="gift"><path d="M5.72 2.33C6.976.757 8.842.638 10.52 1.664a5.697 5.697 0 0 1 2.008 2.1c1.509-1.388 3.79-1.905 5.178-.517 1.117 1.118 1.13 2.555.448 3.708H20a3 3 0 0 1 2.995 2.823l.005.176v3h-1v7a3 3 0 0 1-2.824 2.995l-.176.005H5a3 3 0 0 1-2.995-2.823L2 19.954v-7H1v-3A3 3 0 0 1 3.824 6.96L4 6.954l1.967.001c-1.264-1.365-1.469-3.1-.248-4.625zM11 12.954H4v7a1 1 0 0 0 .883.994l.117.006h6v-8zm9 0h-7v8h6a1 1 0 0 0 .993-.883l.007-.117v-7zm-9-4H4a1 1 0 0 0-.993.884L3 9.954v1h8v-2zm9 0h-7v2h8v-1a1 1 0 0 0-1-1zm-6.993-2.15l-.007.15h1.5c1.678 0 2.596-1.49 1.793-2.293-.795-.795-3.145.549-3.286 2.143zM9.479 3.37c-.888-.542-1.636-.494-2.198.21-.574.716-.475 1.391.239 2.105.745.745 1.989 1.27 2.98 1.27h.5v-1.5c0-.6-.656-1.556-1.521-2.085z"/></symbol><symbol viewBox="0 0 24 24" id="github"><path d="M12 0C5.373 0 0 5.506 0 12.298c0 5.436 3.444 10.047 8.208 11.683.6.098.792-.283.792-.615v-2.078c-3.324.738-4.032-1.648-4.032-1.648-.552-1.427-1.332-1.808-1.332-1.808-1.092-.762.084-.738.084-.738 1.2.086 1.836 1.267 1.836 1.267 1.044 1.87 2.808 1.316 3.492 1.02.108-.799.42-1.34.756-1.647-2.664-.308-5.46-1.365-5.46-6.051 0-1.365.456-2.46 1.236-3.333-.12-.307-.54-1.586.12-3.246 0 0 1.008-.332 3.3 1.254a11.05 11.05 0 0 1 3-.406c1.02 0 2.052.135 3 .406 2.292-1.586 3.3-1.254 3.3-1.254.66 1.66.24 2.939.12 3.246.78.873 1.236 1.968 1.236 3.333 0 4.698-2.808 5.73-5.484 6.038.432.382.828 1.132.828 2.275v3.37c0 .332.192.726.804.615C20.568 22.333 24 17.734 24 12.298c0-3.262-1.264-6.39-3.515-8.696C18.235 1.296 15.183 0 12 0z"/></symbol><symbol viewBox="0 0 24 24" id="globe"><path d="M17.9 17.39c-.26-.8-1.01-1.39-1.9-1.39h-1v-3a1 1 0 0 0-1-1H8v-2h2a1 1 0 0 0 1-1V7h2a2 2 0 0 0 2-2v-.41a7.984 7.984 0 0 1 2.9 12.8zM11 19.93c-3.95-.49-7-3.85-7-7.93 0-.62.08-1.22.21-1.79L9 15v1a2 2 0 0 0 2 2v1.93zM12 2C6.477 2 2 6.477 2 12A10 10 0 1 0 12 2z"/></symbol><symbol viewBox="0 0 24 24" id="google"><path fill-rule="evenodd" d="M12 10v5h6.317A6.992 6.992 0 0 1 12 19a7 7 0 1 1 0-14c1.762 0 3.355.667 4.585 1.741l3.719-3.381A11.925 11.925 0 0 0 12 0C5.373 0 0 5.373 0 12s5.373 12 12 12c5.59 0 10.272-3.827 11.606-9 .248-.961.394-1.962.394-3 0-.683-.07-1.348-.18-2"/></symbol><symbol viewBox="0 0 24 24" id="grid"><path d="M5 15v4h4v-4H5zm-1-2h6a1 1 0 0 1 1 1v6a1 1 0 0 1-1 1H4a1 1 0 0 1-1-1v-6a1 1 0 0 1 1-1zm11 2v4h4v-4h-4zm-1-2h6a1 1 0 0 1 1 1v6a1 1 0 0 1-1 1h-6a1 1 0 0 1-1-1v-6a1 1 0 0 1 1-1zm1-8v4h4V5h-4zm-1-2h6a1 1 0 0 1 1 1v6a1 1 0 0 1-1 1h-6a1 1 0 0 1-1-1V4a1 1 0 0 1 1-1zM5 5v4h4V5H5zM4 3h6a1 1 0 0 1 1 1v6a1 1 0 0 1-1 1H4a1 1 0 0 1-1-1V4a1 1 0 0 1 1-1z"/></symbol><symbol viewBox="0 0 24 24" id="hard-disk"><path d="M6 2h12a2 2 0 0 1 2 2v16a2 2 0 0 1-2 2H6a2 2 0 0 1-2-2V4a2 2 0 0 1 2-2zm6 2a6 6 0 0 0-6 6c0 3.31 2.69 6 6.1 6l-.88-2.23a1.01 1.01 0 0 1 .37-1.37l.86-.5a1.01 1.01 0 0 1 1.37.37l1.92 2.42A6 6 0 0 0 12 4zm0 5a1 1 0 1 1 0 2 1 1 0 0 1 0-2zm-5 9a1 1 0 1 0 0 2 1 1 0 0 0 0-2zm5.09-4.73l2.49 6.31 2.59-1.5-4.22-5.31-.86.5z"/></symbol><symbol viewBox="0 0 24 24" id="heart-pulse"><path d="M14.255 10.747l.85 1.7A1 1 0 0 0 16 13h4.364c-1.485 2.104-3.9 4.297-6.914 7.03L12 21.35l-1.45-1.32C7.536 17.297 5.12 15.104 3.636 13H7a1 1 0 0 0 .707-.293l1.094-1.094 2.342 3.901c.45.75 1.578.602 1.819-.24l1.293-4.527zM16.5 3C19.58 3 22 5.41 22 8.5a6.52 6.52 0 0 1-.511 2.5h-4.871l-1.724-3.447c-.407-.816-1.605-.705-1.856.172l-1.366 4.784-1.815-3.023a1 1 0 0 0-1.564-.193L6.586 11H2.51A6.52 6.52 0 0 1 2 8.5C2 5.41 4.42 3 7.5 3c1.74 0 3.41.81 4.5 2.08C13.09 3.81 14.76 3 16.5 3z"/></symbol><symbol viewBox="0 0 24 24" id="heroku"><path fill-rule="evenodd" d="M4 18l4 3-4 3v-6zM8 0v9.155c3.008-.966 5.43-1.31 7.329-.993C18.33 8.662 20 10.812 20 14v10h-4V14c0-2.463-2.371-2.858-9.266-.14L4 14.939V0h4zm9.003 0H21c-.256 1.834-1.1 4.027-2.734 5.734L18.001 6H14c1.474-1.646 2.432-3.785 2.913-5.634l.09-.366H21z"/></symbol><symbol viewBox="0 0 24 24" id="homebrew"><path d="M7.874 9.697a4.497 4.497 0 0 1-.998-.541l-.755 9.806a.5.5 0 0 0 .499.538h8.75a.5.5 0 0 0 .498-.542l-.79-9.483a3.487 3.487 0 0 1-1.015-.283l.876 8.814a.5.5 0 0 1-.497.55h-6.89a.5.5 0 0 1-.498-.55l.82-8.31zM18.664 7.5a3.514 3.514 0 0 1-1.61 1.637l.401 4.781.179 2.147 1.211-.606.715-.366a1 1 0 0 0 .44-.83V7.5h-1.337zm.3-2H20a2 2 0 0 1 2 2v6.764a3 3 0 0 1-1.658 2.683l-2.53 1.265.14 1.663a1.5 1.5 0 0 1-1.495 1.625H5.54c-.058 0-.058 0-.115-.004a1.5 1.5 0 0 1-1.38-1.611L4.91 8.619a3.5 3.5 0 0 1 1.755-6.615A4.493 4.493 0 0 1 9.5 1c1.033 0 2 .351 2.773.955a3.498 3.498 0 0 1 4.352.73 3.504 3.504 0 0 1 2.34 2.815zm-6.425-.842a.995.995 0 0 0-.738-.138 2.5 2.5 0 0 0-4.468-.268 1.5 1.5 0 1 0 0 2.495 2.499 2.499 0 0 0 4.468-.267 1.005 1.005 0 0 0 1.071-.49 1.496 1.496 0 0 0 1.213.508 1.5 1.5 0 1 0 1.33-1.996 1.5 1.5 0 0 0-2.876.156zm-.545 5.842a1 1 0 1 0 0-2 1 1 0 0 0 0 2z"/></symbol><symbol viewBox="0 0 24 24" id="hook"><path fill-rule="evenodd" d="M15 2a3.993 3.993 0 0 1 1 7.86V17a5 5 0 0 1-10 0v-5l5 5H8a3 3 0 0 0 6 0V9.86c-1.77-.46-3-2.06-3-3.89C11 3.76 12.8 2 15 2zm0 2a2 2 0 1 0 0 4 2 2 0 0 0 0-4z"/></symbol><symbol viewBox="0 0 24 24" id="house-wifi"><path d="M13 2c6.075 0 11 4.925 11 11h-2a9 9 0 0 0-9-9V2zm0 4a7 7 0 0 1 7 7h-2a5 5 0 0 0-5-5V6zm-6.5 4l6.5 5h-2v6H8v-2.5a1.5 1.5 0 0 0-3 0V21H2v-6H0l6.5-5zm6.5 0a3 3 0 0 1 3 3h-3v-3z"/></symbol><symbol viewBox="0 0 24 24" id="house"><path d="M10 20v-6h4v6h6v-8h3L12 2 1 12h3v8z"/></symbol><symbol viewBox="0 0 24 24" id="incognito"><path d="M12 3C9.31 3 7.41 4.22 7.41 4.22L6 9h12l-1.41-4.78S14.69 3 12 3zm0 8c-1.7 0-4.837.1-7 .5-1.31.242-4 1.5-4 1.5h22s-.58-.25-1.59-.59c-.66-.26-1.36-.63-2.41-.91 0 0-4.18-.5-7-.5zm-4.5 3a3.5 3.5 0 1 0 3.5 3.5c0-.16 0-.32-.03-.47.32-.07.66-.13 1.03-.12.37 0 .71.05 1.03.12-.03.15-.03.31-.03.47a3.5 3.5 0 1 0 3.5-3.5c-1.47 0-2.73.9-3.25 2.19-.32-.1-.7-.19-1.25-.19s-.93.09-1.25.19A3.498 3.498 0 0 0 7.5 14zm0 1a2.5 2.5 0 1 1 0 5 2.5 2.5 0 0 1 0-5zm9 0a2.5 2.5 0 1 1 0 5 2.5 2.5 0 0 1 0-5z"/></symbol><symbol viewBox="0 0 16 16" id="info-circle"><path fill-rule="evenodd" d="M8 5a1 1 0 1 1 0-2 1 1 0 0 1 0 2zm1 2v5a1 1 0 0 1-2 0V7.5a.5.5 0 0 0-.5-.5.5.5 0 0 1 0-1H8a1 1 0 0 1 1 1zM8 0a8 8 0 1 0 0 16A8 8 0 0 0 8 0z"/></symbol><symbol viewBox="0 0 16 16" id="info"><path fill-rule="evenodd" d="M8 5a1 1 0 1 1 0-2 1 1 0 0 1 0 2zm1 2v5a1 1 0 0 1-2 0V7.5a.5.5 0 0 0-.5-.5.5.5 0 0 1 0-1H8a1 1 0 0 1 1 1z"/></symbol><symbol viewBox="0 0 16 16" id="json"><path fill-rule="evenodd" d="M4 4v2H3v4h1v2H3a2 2 0 0 1-1.995-1.85L1 10V9H0V7h1V6a2 2 0 0 1 1.85-1.995L3 4h1zm9 0a2 2 0 0 1 1.995 1.85L15 6v1h1v2h-1v1a2 2 0 0 1-1.85 1.995L13 12h-1v-2h1V6h-1V4h1zM5 7a1 1 0 1 1 0 2 1 1 0 0 1 0-2zm3 0a1 1 0 1 1 0 2 1 1 0 0 1 0-2zm3 0a1 1 0 1 1 0 2 1 1 0 0 1 0-2z"/></symbol><symbol viewBox="0 0 24 24" id="key-two-teeth"><path fill-rule="evenodd" d="M7 7a5.002 5.002 0 0 1 4.9 4H23v2h-2v3h-2v-3h-2v2h-2v-2l-3.1.001A5.002 5.002 0 0 1 2 12a5 5 0 0 1 5-5zm0 2a3 3 0 1 0 0 6 3 3 0 0 0 0-6z"/></symbol><symbol viewBox="0 0 16 16" id="key"><path fill-rule="evenodd" d="M4 4a4.002 4.002 0 0 1 3.874 3H16v2h-1v2h-2V9H7.874A4.002 4.002 0 0 1 0 8a4 4 0 0 1 4-4zm0 2a2 2 0 1 0 0 4 2 2 0 0 0 0-4z"/></symbol><symbol viewBox="0 0 24 24" id="kolide"><path fill-rule="evenodd" d="M15.606 19.525l-3.01-4.854-2.18.002 1.78.947.007 3.905H8.837v-9.243l-2.17-1.158-.002-1.267h5.522l.006 4.178h.768l2.645-4.177h3.903l-3.567 5.837 3.567 5.83h-3.903zm8.343-1.863L19.948 2.737a1.483 1.483 0 0 0-1.051-1.053L12.799.051a1.49 1.49 0 0 0-1.438.385L5.919 5.877.436 11.361A1.488 1.488 0 0 0 .05 12.8l1.633 6.099c.139.513.54.914 1.054 1.052l14.923 4a1.49 1.49 0 0 0 1.439-.387l4.464-4.464c.376-.376.523-.924.385-1.437z"/></symbol><symbol viewBox="0 0 24 24" id="laptop-person"><path fill-rule="evenodd" d="M4.862 4h14.276c.979 0 1.782.756 1.856 1.716l.006.146V17h2v1.5c0 .78-.572 1.42-1.305 1.493l-.139.007H2.444c-.751 0-1.367-.595-1.437-1.356L1 18.5V17h2V5.862c0-.98.756-1.782 1.717-1.856L4.862 4h14.276zM14 17h-4a1 1 0 0 0 .883.993L11 18h2a1 1 0 0 0 1-1zm5-11H5v10h3v-.9l.01-.142C8.181 13.654 10.713 13 12 13c1.238 0 3.632.607 3.962 1.816l.029.142.009.142v.9h3V6zm-7 2a2 2 0 1 1 0 4 2 2 0 0 1 0-4z"/></symbol><symbol viewBox="0 0 24 24" id="laptop"><path fill-rule="evenodd" d="M13 18h-2a1 1 0 0 1-1-1h4a1 1 0 0 1-1 1zm-8-2h14V6H5v10zm16 1V5.862A1.862 1.862 0 0 0 19.14 4H4.863A1.862 1.862 0 0 0 3 5.862V17H1v1.5c0 .828.647 1.5 1.445 1.5h19.112c.798 0 1.444-.672 1.444-1.5V17h-2z"/></symbol><symbol viewBox="0 0 24 24" id="letter"><path fill-rule="evenodd" d="M20 4H4c-1.11 0-2 .89-2 2v12a2 2 0 0 0 2 2h16a2 2 0 0 0 2-2V6a2 2 0 0 0-2-2m0 4l-8 5-8-5V6l8 5 8-5"/></symbol><symbol viewBox="0 0 24 24" id="light-bulb"><path d="M23 12a1 1 0 0 1-1 1h-1a1 1 0 0 1 0-2h1a1 1 0 0 1 1 1zM4 12a1 1 0 0 1-1 1H2a1 1 0 0 1 0-2h1a1 1 0 0 1 1 1zm8-8a1 1 0 0 1-1-1V2a1 1 0 0 1 2 0v1a1 1 0 0 1-1 1zM6.34 6.345l-.005.005a1 1 0 0 1-1.41-.001l-.717-.714a1 1 0 0 1-.004-1.414l.007-.007a1 1 0 0 1 1.419-.001l.714.718a1 1 0 0 1-.004 1.414zm13.439-2.136l.012.012a1 1 0 0 1-.001 1.416l-.713.71a1 1 0 0 1-1.412-.002l-.01-.01a1 1 0 0 1-.001-1.412l.709-.713a1 1 0 0 1 1.416-.001zM12 6a6 6 0 0 1 6 6c0 2.22-1.21 4.16-3 5.2V19a1 1 0 0 1-1 1h-4a1 1 0 0 1-1-1v-1.8c-1.79-1.04-3-2.98-3-5.2a6 6 0 0 1 6-6zm2 15v1a1 1 0 0 1-1 1h-2a1 1 0 0 1-1-1v-1h4zm-3-3h2v-2.13c1.73-.44 3-2.01 3-3.87a4 4 0 1 0-8 0c0 1.86 1.27 3.43 3 3.87V18z"/></symbol><symbol viewBox="0 0 24 24" id="link-out"><path d="M16.207 8.207l-4.5 4.5a1 1 0 0 1-1.414-1.414l4.5-4.5-1.94-1.94A.5.5 0 0 1 13.208 4H18a1 1 0 0 1 1 1v4.793a.5.5 0 0 1-.854.353l-1.939-1.939zM11 5a1 1 0 0 1-1 1H7v12h10v-5a1 1 0 0 1 2 0v5a2 2 0 0 1-2 2H7a2 2 0 0 1-2-2V6a2 2 0 0 1 2-2h3a1 1 0 0 1 1 1z"/></symbol><symbol viewBox="0 0 24 24" id="linkedin"><path d="M20.52 2c.816 0 1.48.646 1.48 1.441v17.115c0 .797-.664 1.443-1.48 1.443H3.475C2.662 22 2 21.353 2 20.556V3.44C2 2.646 2.662 2 3.476 2zM7.931 9.497H4.965v9.546h2.967V9.497zm7.551-.237c-1.442 0-2.41.792-2.806 1.542h-.04V9.498H9.792v9.544h2.964v-4.721c0-1.245.237-2.451 1.78-2.451 1.522 0 1.542 1.424 1.542 2.53v4.642h2.964v-5.235c0-2.57-.554-4.547-3.559-4.547zM6.45 4.754a1.72 1.72 0 1 0 0 3.44 1.72 1.72 0 0 0 0-3.44z"/></symbol><symbol viewBox="0 0 24 24" id="linux"><path fill-rule="evenodd" d="M8 14.632C8 12.771 9.791 10 12 10s4 2.771 4 4.632C16 16.492 14.209 18 12 18s-4-1.508-4-3.368zm5.333-6.965C13.333 8 12.667 9 12 9c-.667 0-1.333-1-1.333-1.333 0-.334.666-.667 1.333-.667.667 0 1.333.333 1.333.667zM12 4c-1.75 0-3 1.498-3 3s-.433 2.322-.778 2.667c-.944.944-4.218 4.166-4.218 5.583 0 .954.915 1 .996 1 .427 0 1.333-.444 1.333-.444.222.924.833 1.67 1.446 2.355a5.776 5.776 0 0 0 .685.652c.198.155.388.274.577.39-.379.224-.734.408-1.262.694-.229.125-.764.37-.764.63 0 .261.129.473.469.473h2.623a.948.948 0 0 0 .949-.948v-.081l.053.008c.291.045.588.077.891.077.303 0 .6-.032.89-.077l.054-.008v.08c0 .525.424.949.949.949h2.724c.257 0 .383-.167.383-.472 0-.305-.347-.526-.585-.63a31.466 31.466 0 0 1-1.456-.694 5.91 5.91 0 0 0 .553-.373c.255-.203.469-.408.67-.627.011-.015.026-.029.039-.043.613-.686 1.224-1.43 1.446-2.355 0 0 .906.444 1.333.444.081 0 1-.046 1-1 0-1.417-3.278-4.639-4.222-5.583C15.435 9.324 15 8.502 15 7c0-1.502-1.25-3-3-3z"/></symbol><symbol viewBox="0 0 24 24" id="list-bullet"><path fill-rule="evenodd" d="M20 18a1 1 0 0 1 1 1v1a1 1 0 0 1-1 1H9a1 1 0 0 1-1-1v-1a1 1 0 0 1 1-1h11zM4.5 18a1.5 1.5 0 1 1 0 3 1.5 1.5 0 0 1 0-3zM20 11a1 1 0 0 1 1 1v1a1 1 0 0 1-1 1H9a1 1 0 0 1-1-1v-1a1 1 0 0 1 1-1h11zM4.5 11a1.5 1.5 0 1 1 0 3 1.5 1.5 0 0 1 0-3zM20 4a1 1 0 0 1 1 1v1a1 1 0 0 1-1 1H9a1 1 0 0 1-1-1V5a1 1 0 0 1 1-1h11zM4.5 4a1.5 1.5 0 1 1 0 3 1.5 1.5 0 0 1 0-3z"/></symbol><symbol viewBox="0 0 24 24" id="list-even"><path fill-rule="evenodd" d="M20 18a1 1 0 0 1 1 1v1a1 1 0 0 1-1 1H4a1 1 0 0 1-1-1v-1a1 1 0 0 1 1-1h16zm0-7a1 1 0 0 1 1 1v1a1 1 0 0 1-1 1H4a1 1 0 0 1-1-1v-1a1 1 0 0 1 1-1h16zm0-7a1 1 0 0 1 1 1v1a1 1 0 0 1-1 1H4a1 1 0 0 1-1-1V5a1 1 0 0 1 1-1h16z"/></symbol><symbol viewBox="0 0 24 24" id="list-uneven"><path fill-rule="evenodd" d="M17 18a1 1 0 0 1 1 1v1a1 1 0 0 1-1 1H4a1 1 0 0 1-1-1v-1a1 1 0 0 1 1-1h13zm-3-7a1 1 0 0 1 1 1v1a1 1 0 0 1-1 1H4a1 1 0 0 1-1-1v-1a1 1 0 0 1 1-1h10zm6-7a1 1 0 0 1 1 1v1a1 1 0 0 1-1 1H4a1 1 0 0 1-1-1V5a1 1 0 0 1 1-1h16z"/></symbol><symbol viewBox="0 0 24 24" id="location-pin"><path d="M12 11.5a2.5 2.5 0 1 1 0-5 2.5 2.5 0 0 1 0 5zM12 2a7 7 0 0 0-7 7c0 5.25 7 13 7 13s7-7.75 7-13a7 7 0 0 0-7-7z"/></symbol><symbol viewBox="0 0 24 24" id="locked"><path fill-rule="evenodd" d="M15 10H9V9c0-1.654 1.346-3 3-3s3 1.346 3 3v1zm-2 5.723V17a1 1 0 1 1-2 0v-1.277c-.596-.347-1-.985-1-1.723a2 2 0 0 1 4 0c0 .738-.404 1.376-1 1.723zM17.093 10H17V9a5 5 0 0 0-5-5 5 5 0 0 0-5 5v1h-.093A1.907 1.907 0 0 0 5 11.907v7.14c0 .526.427.953.953.953h12.094a.953.953 0 0 0 .953-.953v-7.14A1.907 1.907 0 0 0 17.093 10z"/></symbol><symbol viewBox="0 0 24 24" id="magic-wand"><path d="M7.503 4.6L5.003 6l1.4-2.5-1.4-2.5 2.5 1.4 2.5-1.4-1.4 2.5 1.4 2.5-2.5-1.4zm12 9.8l2.5-1.4-1.4 2.5 1.4 2.5-2.5-1.4-2.5 1.4 1.4-2.5-1.4-2.5 2.5 1.4zm2.5-13.4l-1.4 2.5 1.4 2.5-2.5-1.4-2.5 1.4 1.4-2.5-1.4-2.5 2.5 1.4 2.5-1.4zm-8.66 10.78l2.44-2.44-2.12-2.12-2.44 2.44 2.12 2.12zm1.03-5.49l2.34 2.34c.39.37.39 1.02 0 1.41L5.042 21.71c-.39.39-1.04.39-1.41 0l-2.34-2.34c-.39-.37-.39-1.02 0-1.41l11.67-11.67c.39-.39 1.04-.39 1.41 0z"/></symbol><symbol viewBox="0 0 16 16" id="magnifying-glass"><path d="M11.192 12.606a7 7 0 1 1 1.414-1.414l3.101 3.1a1 1 0 0 1-1.414 1.415l-3.1-3.1zM7 12A5 5 0 1 0 7 2a5 5 0 0 0 0 10z"/></symbol><symbol viewBox="0 0 24 24" id="masks"><path d="M8.108 19.398a6.948 6.948 0 0 1-4.4-5.1l-1.66-7.81c-.24-1.08.45-2.14 1.53-2.37l9.77-2.07.03-.01c1.07-.21 2.12.48 2.34 1.54l.35 1.67 4.35.93h.03c1.05.24 1.73 1.3 1.51 2.36l-1.66 7.82a6.993 6.993 0 0 1-8.3 5.38 6.888 6.888 0 0 1-3.89-2.34zm11.89-11.27l-9.77-2.08-1.66 7.82v.03c-.57 2.68 1.16 5.32 3.85 5.89 2.69.57 5.35-1.15 5.92-3.84l1.66-7.82zm-4 8.32a2.962 2.962 0 0 1-3.17 1.39 2.974 2.974 0 0 1-2.33-2.55l5.5 1.16zm-7.53-11.33l-4.47.96 1.66 7.81.01.03c.15.71.45 1.35.86 1.9-.1-.77-.08-1.57.09-2.37l.43-2c-.45-.08-.84-.33-1.05-.69.06-.61.56-1.15 1.25-1.31h.25l.78-3.81c.04-.19.1-.36.19-.52zm6.56 7.06c.32-.53 1-.81 1.69-.66.69.14 1.19.67 1.28 1.29-.33.52-1 .8-1.7.64-.69-.13-1.19-.66-1.27-1.27zm-4.88-1.04c.32-.53.99-.81 1.68-.66.67.14 1.2.68 1.28 1.29-.33.52-1 .81-1.69.68-.69-.17-1.19-.7-1.27-1.31zm1.82-6.76l1.96.42-.16-.8-1.8.38z"/></symbol><symbol viewBox="0 0 24 24" id="megaphone"><path d="M16 13v4a1 1 0 0 1-1 1c-.17 0-.33 0-.94-.5-.62-.5-1.67-1.5-2.75-2-1-.46-2.03-.5-3.05-.5l1.21 3.32.03.18a.5.5 0 0 1-.5.5H7c-.22 0-.41-.14-.47-.34L5.19 15H5a1 1 0 0 1-1-1 2 2 0 1 1 0-4 1 1 0 0 1 1-1h3c1.11 0 2.22 0 3.31-.5 1.08-.5 2.13-1.5 2.75-2 .61-.5.77-.5.94-.5a1 1 0 0 1 1 1v4a1 1 0 0 1 0 2zm5-1c0 1.38-.56 2.63-1.46 3.54l-1.42-1.42a2.993 2.993 0 0 0 0-4.24l1.42-1.42c.9.91 1.46 2.16 1.46 3.54z"/></symbol><symbol viewBox="0 0 24 24" id="minus-circle"><path fill-rule="evenodd" d="M12 2c5.523 0 10 4.477 10 10s-4.477 10-10 10S2 17.523 2 12 6.477 2 12 2zm6 9H6a1 1 0 0 0 0 2h12a1 1 0 0 0 0-2z"/></symbol><symbol viewBox="0 0 24 24" id="minus"><path d="M6 13h12a1 1 0 0 0 0-2H6a1 1 0 0 0 0 2z"/></symbol><symbol viewBox="0 0 24 24" id="monitor"><path d="M21 14H3V4h18v10zm0-12H3c-1.11 0-2 .89-2 2v12a2 2 0 0 0 2 2h7l-2 3v1h8v-1l-2-3h7a2 2 0 0 0 2-2V4a2 2 0 0 0-2-2z"/></symbol><symbol viewBox="0 0 24 24" id="office365"><path fill-rule="evenodd" d="M14.841 2.97c.036.231.046 16.903.011 17.267l-8.451-2.025V6.459L2.05 4.75l-.025.014c-.006.005-.014.012-.015.018-.005.044-.01.088-.01.133V19.15c.065.08.149.09.221.118l12.417 4.675c.144.054.274.08.433.034 2.27-.663 4.544-1.319 6.816-1.977l.113-.037V1.947c-.653-.183-1.3-.365-1.947-.545C18.406.945 16.757.492 15.11.031a.701.701 0 0 0-.46.017C10.578 1.56 6.505 3.07 2.434 4.579a.551.551 0 0 0-.227.135L14.84 2.971z"/></symbol><symbol viewBox="0 0 24 24" id="osquery"><path fill-rule="evenodd" d="M22 12l-5.001 5L22 22h-5.001l-5-5 5-5H22zM7 12l5 5v5l-5-5-5 5v-5l5-5zM22 2v5.001L16.997 12 12 7V2l4.998 5.001L22 2zM7 2l5 5.001L7 12H2l5-5-5-5h5z"/></symbol><symbol viewBox="0 0 24 24" id="package"><path d="M21 16.5c0 .38-.21.71-.53.88l-7.9 4.44c-.16.12-.36.18-.57.18-.21 0-.41-.06-.57-.18l-7.9-4.44A.991.991 0 0 1 3 16.5v-9c0-.38.21-.71.53-.88l7.9-4.44c.16-.12.36-.18.57-.18.21 0 .41.06.57.18l7.9 4.44c.32.17.53.5.53.88v9zM12 4.15l-1.89 1.07L16 8.61l1.96-1.11L12 4.15zM6.04 7.5L12 10.85l1.96-1.1-5.88-3.4L6.04 7.5zM5 15.91l6 3.38v-6.71L5 9.21v6.7zm14 0v-6.7l-6 3.37v6.71l6-3.38z"/></symbol><symbol viewBox="0 0 24 24" id="pamphlet-small"><path d="M16 15.333v2.674l3-.824V6.393l-3 .83v2.444L18 9v2l-2 .667v1.666L17 13v2l-1 .333zM14 17V6H5v11h9zm2-11.903l4.379-1.082a.497.497 0 0 1 .621.48V18.31c0 .222-.15.416-.366.476l-8 2.196a.497.497 0 0 1-.634-.476V19H4a1 1 0 0 1-1-1V5a1 1 0 0 1 1-1h11a1 1 0 0 1 1 1v.097zM7 8h5v2H7V8zm0 4h3v2H7v-2z"/></symbol><symbol viewBox="0 0 24 24" id="pamphlet"><path fill-rule="evenodd" d="M5 15h4v-2H5v2zm0-4h6V9H5v2zm0-4h6V5H5v2zm15 11.438l-5.421 1.356A.98.98 0 0 0 15 19v-2.4l3-.6v-2l-3 .6v-2l2-.4v-2l-2 .4v-2l3-.6V6l-3 .6V4.812l5-1.25v14.876zM13 7v11H3V3h10v4zm8.502-5.86a.515.515 0 0 0-.122.015L15 2.75V2a1 1 0 0 0-1-1H2a1 1 0 0 0-1 1v17a1 1 0 0 0 1 1h8v3l11.622-2.905a.5.5 0 0 0 .378-.486V1.641a.5.5 0 0 0-.498-.501z"/></symbol><symbol viewBox="0 0 24 24" id="password-field"><path d="M21 16v1H3v-1h18zM5.979 8.25v1.098c0 .089-.006.176-.017.26-.01.085-.03.165-.055.241.06-.061.121-.114.19-.161.07-.05.144-.097.223-.143l.958-.546.472.762-.958.54a2.773 2.773 0 0 1-.256.12 1.357 1.357 0 0 1-.255.076c.091.018.175.044.259.08.085.035.17.076.252.123l.958.552-.472.755-.958-.552a2.792 2.792 0 0 1-.23-.143 1.58 1.58 0 0 1-.196-.161c.056.148.085.31.085.488v1.111H5.02v-1.098c0-.085.006-.17.017-.257.01-.087.03-.166.055-.238l-.004.004a1.11 1.11 0 0 1-.186.155c-.07.046-.144.093-.223.14l-.958.539-.472-.756.958-.54c.083-.046.166-.086.249-.12.083-.034.168-.059.256-.076a1.246 1.246 0 0 1-.256-.08 2.726 2.726 0 0 1-.25-.123l-.957-.552.472-.762.958.559c.079.046.154.094.226.143.072.048.137.102.194.161a1.42 1.42 0 0 1-.079-.488V8.25h.958zm6.5 0v1.098c0 .089-.006.176-.017.26-.01.085-.03.165-.055.241.06-.061.121-.114.19-.161.07-.05.144-.097.223-.143l.958-.546.472.762-.958.54a2.773 2.773 0 0 1-.256.12 1.357 1.357 0 0 1-.255.076c.091.018.175.044.259.08.085.035.17.076.252.123l.958.552-.472.755-.958-.552a2.792 2.792 0 0 1-.23-.143 1.58 1.58 0 0 1-.196-.161c.056.148.085.31.085.488v1.111h-.958v-1.098c0-.085.006-.17.017-.257.01-.087.03-.166.055-.238l-.004.004a1.11 1.11 0 0 1-.186.155c-.07.046-.144.093-.223.14l-.958.539-.472-.756.958-.54c.083-.046.166-.086.249-.12.083-.034.168-.059.256-.076a1.246 1.246 0 0 1-.256-.08 2.726 2.726 0 0 1-.25-.123l-.957-.552.472-.762.958.559c.079.046.154.094.226.143.072.048.137.102.194.161a1.42 1.42 0 0 1-.079-.488V8.25h.958zm6.5 0v1.098c0 .089-.006.176-.017.26-.01.085-.03.165-.055.241.06-.061.121-.114.19-.161.07-.05.144-.097.223-.143l.958-.546.472.762-.958.54a2.773 2.773 0 0 1-.256.12 1.357 1.357 0 0 1-.255.076c.091.018.175.044.259.08.085.035.17.076.252.123l.958.552-.472.755-.958-.552a2.792 2.792 0 0 1-.23-.143 1.58 1.58 0 0 1-.196-.161c.056.148.085.31.085.488v1.111h-.958v-1.098c0-.085.006-.17.017-.257.01-.087.03-.166.055-.238l-.004.004a1.11 1.11 0 0 1-.186.155c-.07.046-.144.093-.223.14l-.958.539-.472-.756.958-.54c.083-.046.166-.086.249-.12.083-.034.168-.059.256-.076a1.246 1.246 0 0 1-.256-.08 2.726 2.726 0 0 1-.25-.123l-.957-.552.472-.762.958.559c.079.046.154.094.226.143.072.048.137.102.194.161a1.42 1.42 0 0 1-.079-.488V8.25h.958z"/></symbol><symbol viewBox="0 0 24 24" id="pdf"><path d="M13 9h5.5L13 3.5V9zM6 2h8l6 6v12a2 2 0 0 1-2 2H6a2 2 0 0 1-2-2V4a2 2 0 0 1 2-2zm4.93 10.44c.41.9.93 1.64 1.53 2.15l.41.32c-.87.16-2.07.44-3.34.93l-.11.04.5-1.04c.45-.87.78-1.66 1.01-2.4zm6.48 3.81c.18-.18.27-.41.28-.66.03-.2-.02-.39-.12-.55-.29-.47-1.04-.69-2.28-.69l-1.29.07-.87-.58c-.63-.52-1.2-1.43-1.6-2.56l.04-.14c.33-1.33.64-2.94-.02-3.6a.853.853 0 0 0-.61-.24h-.24c-.37 0-.7.39-.79.77-.37 1.33-.15 2.06.22 3.27v.01c-.25.88-.57 1.9-1.08 2.93l-.96 1.8-.89.49c-1.2.75-1.77 1.59-1.88 2.12-.04.19-.02.36.05.54l.03.05.48.31.44.11c.81 0 1.73-.95 2.97-3.07l.18-.07c1.03-.33 2.31-.56 4.03-.75 1.03.51 2.24.74 3 .74.44 0 .74-.11.91-.3zm-.41-.71l.09.11c-.01.1-.04.11-.09.13h-.04l-.19.02c-.46 0-1.17-.19-1.9-.51.09-.1.13-.1.23-.1 1.4 0 1.8.25 1.9.35zM7.83 17c-.65 1.19-1.24 1.85-1.69 2 .05-.38.5-1.04 1.21-1.69l.48-.31zm3.02-6.91c-.23-.9-.24-1.63-.07-2.05l.07-.12.15.05c.17.24.19.56.09 1.1l-.03.16-.16.82-.05.04z"/></symbol><symbol viewBox="0 0 24 24" id="pencil"><path d="M20.71 7.043c.39-.39.39-1.04 0-1.41l-2.34-2.34c-.37-.39-1.02-.39-1.41 0l-1.84 1.83 3.75 3.75 1.84-1.83zM3 17.253v3.75h3.75l11.06-11.07-3.75-3.75L3 17.253z"/></symbol><symbol viewBox="0 0 24 24" id="people-group"><path fill-rule="evenodd" d="M18 15a1.501 1.501 0 0 1 0 3c-.826 0-1.5-.673-1.5-1.5S17.174 15 18 15zM6 15c.827 0 1.5.673 1.5 1.5S6.827 18 6 18s-1.5-.673-1.5-1.5S5.173 15 6 15zm6-11a1.501 1.501 0 0 1 0 3c-.826 0-1.5-.673-1.5-1.5S11.175 4 12 4zm6 9a3.5 3.5 0 0 1 3.5 3.5c0 .859-.322 1.637-.837 2.246a5.016 5.016 0 0 1 2.277 2.998L23 22h-2c-.422-1.161-1.67-2-3-2-1.265 0-2.457.761-2.934 1.836L15 22h-2c.286-1.377 1.155-2.541 2.338-3.254A3.466 3.466 0 0 1 14.5 16.5 3.5 3.5 0 0 1 18 13zM6 13a3.5 3.5 0 0 1 3.5 3.5 3.47 3.47 0 0 1-.836 2.246C9.847 19.459 10.716 20.623 11 22H9c-.423-1.161-1.671-2-3-2-1.33 0-2.578.839-3 2H1c.285-1.377 1.154-2.541 2.337-3.254A3.466 3.466 0 0 1 2.5 16.5 3.5 3.5 0 0 1 6 13zm6-11a3.5 3.5 0 0 1 3.5 3.5c0 .86-.322 1.637-.836 2.246a5.016 5.016 0 0 1 2.276 2.998L17 11h-2c-.422-1.162-1.67-2-3-2-1.265 0-2.457.76-2.934 1.836L9 11H7c.285-1.377 1.155-2.541 2.338-3.254A3.464 3.464 0 0 1 8.5 5.5 3.5 3.5 0 0 1 12 2z"/></symbol><symbol viewBox="0 0 24 24" id="people"><path d="M15.095 13c-.327 0-.7 0-1.095.05 1.31.84 2.225 1.95 2.225 3.45V19H23v-2.5c0-2.33-5.274-3.5-7.905-3.5zM7.5 13C5.336 13 1 14.17 1 16.5V19h13v-2.5c0-2.33-4.336-3.5-6.5-3.5zm0-1a3.5 3.5 0 1 0 0-7 3.5 3.5 0 0 0 0 7zm9 0a3.5 3.5 0 1 0 0-7 3.5 3.5 0 0 0 0 7z"/></symbol><symbol viewBox="0 0 24 24" id="person-gear"><path d="M9 2a4 4 0 1 0 0 8 4 4 0 0 0 0-8zm0 10c-2.67 0-8 1.33-8 4v2h11.08c-.05-.33-.08-.66-.08-1 0-1.5.5-3 1.41-4.2-1.53-.52-3.23-.8-4.41-.8zm9 0a.26.26 0 0 0-.26.21l-.19 1.32c-.3.13-.59.29-.85.47l-1.24-.5c-.11 0-.24 0-.31.13l-1 1.73c-.06.11-.04.24.06.32l1.06.82a4.193 4.193 0 0 0 0 1l-1.06.82a.26.26 0 0 0-.06.32l1 1.73c.06.13.19.13.31.13l1.24-.5c.26.18.54.35.85.47l.19 1.32c.02.12.12.21.26.21h2c.11 0 .22-.09.24-.21l.19-1.32c.3-.13.57-.29.84-.47l1.23.5c.13 0 .26 0 .33-.13l1-1.73a.26.26 0 0 0-.06-.32l-1.07-.82c.02-.17.04-.33.04-.5 0-.17-.01-.33-.04-.5l1.06-.82a.26.26 0 0 0 .06-.32l-1-1.73c-.06-.13-.19-.13-.32-.13l-1.23.5c-.27-.18-.54-.35-.85-.47l-.19-1.32A.236.236 0 0 0 20 12h-2zm1 3.5a1.5 1.5 0 0 1 0 3c-.84 0-1.5-.67-1.5-1.5a1.5 1.5 0 0 1 1.5-1.5z"/></symbol><symbol viewBox="0 0 24 24" id="person-pencil"><path d="M20.7 12.35l-1 1-2.05-2.05 1-1a.55.55 0 0 1 .77 0l1.28 1.28c.21.21.21.56 0 .77zM11 17.94l6.06-6.06 2.05 2.05L13.06 20H11v-2.06zM11 13c-4.42 0-8 1.79-8 4v2h6v-1.89l4-4c-.66-.08-1.33-.11-2-.11zm0-10a4 4 0 1 0 0 8 4 4 0 0 0 0-8z"/></symbol><symbol viewBox="0 0 24 24" id="person"><path d="M12 4a4 4 0 1 1 0 8 4 4 0 0 1 0-8zm0 10c4.42 0 8 1.79 8 4v2H4v-2c0-2.21 3.58-4 8-4z"/></symbol><symbol viewBox="0 0 24 24" id="phone"><path fill-rule="evenodd" d="M11 7v2h2V7h2v3c0-.196 5.753 4.274 5.992 7.09l.008.177V21H3v-3.733c0-2.742 5.753-7.273 5.992-7.273L9 10V7h2zm1 4a4 4 0 1 0 0 8 4 4 0 0 0 0-8zm0 2a2 2 0 1 1 0 4 2 2 0 0 1 0-4zm0-10c4.152 0 7.93 1.607 10.725 4.217a.88.88 0 0 1 .086 1.186l-.077.087-2.273 2.24a.933.933 0 0 1-.67.261.896.896 0 0 1-.623-.253c-.751-.659-1.549-1.228-2.447-1.67a.91.91 0 0 1-.506-.697l-.008-.116V5.456A13.854 13.854 0 0 0 12 4.806c-1.312 0-2.573.178-3.77.522l-.447.137v2.8c0 .36-.21.667-.513.812a10.472 10.472 0 0 0-2.438 1.67.938.938 0 0 1-1.205.067l-.088-.076-2.273-2.24A.893.893 0 0 1 1 7.859c0-.253.1-.479.266-.641A15.684 15.684 0 0 1 12 3z"/></symbol><symbol viewBox="0 0 24 24" id="pipe"><path fill-rule="evenodd" d="M21 10v2h-6v-2h2V8h-4V6h5a1 1 0 1 0 0-2H6a1 1 0 1 0 0 2h5v2H7v2h2v2H3v-2H1v11h2v-2h18v2h2V10h-2z"/></symbol><symbol viewBox="0 0 24 24" id="playbook"><path d="M4.586 5L3.293 3.707a1 1 0 0 1 1.414-1.414L6 3.586l1.293-1.293a1 1 0 0 1 1.414 1.414L7.414 5l1.293 1.293a1 1 0 0 1-1.414 1.414L6 6.414 4.707 7.707a1 1 0 0 1-1.414-1.414L4.586 5zm12 13l-1.293-1.293a1 1 0 0 1 1.414-1.414L18 16.586l1.293-1.293a1 1 0 0 1 1.414 1.414L19.414 18l1.293 1.293a1 1 0 0 1-1.414 1.414L18 19.414l-1.293 1.293a1 1 0 0 1-1.414-1.414L16.586 18zM17 5.85l-.219.274a1 1 0 0 1-1.562-1.248l1.999-2.5a1 1 0 0 1 1.552-.013l2.065 2.5a1 1 0 0 1-1.542 1.274L19 5.782V11a1 1 0 0 1-1 1H7v1a1 1 0 1 1-2 0v-2a1 1 0 0 1 1-1h11V5.85zM6 19a1 1 0 1 0 0-2 1 1 0 0 0 0 2zm0 2a3 3 0 1 1 0-6 3 3 0 0 1 0 6z"/></symbol><symbol viewBox="0 0 24 24" id="plug"><path fill-rule="evenodd" d="M22.007 7v1l-1.004 1.014H20v-.977L21.007 7h1zM17 2v1l-1.003 1.014h-1.003v-.977L16 2h1zm5 4h-.585a1 1 0 0 0-.707.293L16 11l-3-3 4.707-4.707A1 1 0 0 0 18 2.586V2a1 1 0 0 0-1-1h-.586a1 1 0 0 0-.707.293L11 6 9.713 4.713a1 1 0 0 0-1.42.006L5.105 7.96C2.906 10.158 2.804 13.803 5 16l-3.385 3.405a2.096 2.096 0 0 0 0 2.965 2.109 2.109 0 0 0 2.987.015L8.002 19c2.196 2.196 5.844 2.096 8.04-.101l3.241-3.192a1 1 0 0 0 .006-1.42L18 13l4.708-4.707A1 1 0 0 0 23 7.586V7a1 1 0 0 0-1-1z"/></symbol><symbol viewBox="0 0 24 24" id="plus-circle"><path fill-rule="evenodd" d="M12 2c5.523 0 10 4.477 10 10s-4.477 10-10 10S2 17.523 2 12 6.477 2 12 2zm0 3a1 1 0 0 0-1 1v5H6a1 1 0 0 0 0 2h5v5a1 1 0 0 0 2 0v-5h5a1 1 0 0 0 0-2h-5V6a1 1 0 0 0-1-1z"/></symbol><symbol viewBox="0 0 24 24" id="plus"><path d="M13 11h5a1 1 0 0 1 0 2h-5v5a1 1 0 0 1-2 0v-5H6a1 1 0 0 1 0-2h5V6a1 1 0 0 1 2 0v5z"/></symbol><symbol viewBox="0 0 24 24" id="power"><path d="M15.9 7.49c.255.21.454.396.597.557A5.93 5.93 0 0 1 18 12a6 6 0 1 1-12 0 5.96 5.96 0 0 1 1.45-3.9c.153-.178.37-.384.65-.617a.897.897 0 0 0 .06-1.323 1.121 1.121 0 0 0-1.532-.05c-.269.236-.48.44-.634.614A7.94 7.94 0 0 0 4 12a8 8 0 1 0 16 0c0-2.145-.845-4.09-2.223-5.523a6.207 6.207 0 0 0-.388-.365 1.139 1.139 0 0 0-1.554.053.896.896 0 0 0 .065 1.325zM12 3a1 1 0 0 0-1 1v8a1 1 0 0 0 2 0V4a1 1 0 0 0-1-1z"/></symbol><symbol viewBox="0 0 24 24" id="printer"><path d="M18 3H6v4h12V3zm1 9a1 1 0 1 1 0-2 1 1 0 0 1 0 2zm-3 7H8v-5h8v5zm3-11H5a3 3 0 0 0-3 3v6h4v4h12v-4h4v-6a3 3 0 0 0-3-3z"/></symbol><symbol viewBox="0 0 24 24" id="pushpin"><path d="M7 15v-2l2-2V5H8V3h8v2h-1v6l2 2v2h-4v5l-1 1-1-1v-5z"/></symbol><symbol viewBox="0 0 24 24" id="question-filled"><path fill-rule="evenodd" d="M12 2c5.523 0 10 4.477 10 10s-4.477 10-10 10S2 17.523 2 12 6.477 2 12 2zm0 13.5a1.5 1.5 0 1 0 0 3 1.5 1.5 0 0 0 0-3zm3.999-6.496c0-3.203-4.165-4.01-6.48-1.605-.392.407-.403.829-.235 1.172.168.344.726.567 1.202.301 2.299-1.282 3.19-.903 3.368 0 .178.903-.923 1.216-1.998 2.336-.84.875-.891 1.376-.84 1.854.05.478.479.978 1.03.953.552-.026.772-.515.906-1.046.19-.758.828-1.088 1.751-1.76.924-.674 1.296-1.205 1.296-2.205z"/></symbol><symbol viewBox="0 0 16 16" id="question-mark-circle"><path fill-rule="evenodd" d="M8 0c4.41 0 8 3.59 8 8s-3.59 8-8 8-8-3.59-8-8 3.59-8 8-8zm0 11a1 1 0 1 0 0 2 1 1 0 0 0 0-2zm-.006-8c-.926 0-1.673.37-2.248.973-.254.266-.787 1.045-.55.725a1 1 0 0 0 1.58 1.227c-.017.014.31-.46.417-.571.222-.233.466-.354.8-.354C8.628 5 9 5.412 9 6c0 .31-.106.521-.34.75-.08.08-.02.028-.338.292-.59.49-1.053 1.028-1.268 1.615a1 1 0 1 0 1.879.686c.064-.176.324-.479.665-.762.084-.068.144-.117.197-.162.095-.08.18-.157.263-.238C10.649 7.602 11 6.904 11 6c0-1.65-1.222-3-3.006-3z"/></symbol><symbol viewBox="0 0 16 16" id="question-mark"><path fill-rule="evenodd" d="M8 11a1 1 0 1 1 .002 1.998A1 1 0 0 1 8 11zm-.006-8C9.778 3 11 4.35 11 6c0 .904-.35 1.602-.942 2.18a4.852 4.852 0 0 1-.263.239 11.12 11.12 0 0 1-.197.162c-.34.283-.6.586-.665.762a1 1 0 0 1-1.879-.686c.215-.587.677-1.126 1.268-1.615.318-.264.257-.213.338-.291C8.894 6.52 9 6.31 9 6c0-.588-.373-1-1.006-1-.335 0-.58.121-.801.354a6.468 6.468 0 0 0-.418.57 1 1 0 0 1-1.579-1.226c-.237.32.296-.46.55-.725C6.32 3.37 7.068 3 7.994 3z"/></symbol><symbol viewBox="0 0 24 24" id="question-outline"><path fill-rule="evenodd" d="M12 2a10 10 0 0 1 10 10c0 5.523-4.477 10-10 10-5.53 0-10-4.5-10-10C2 6.477 6.477 2 12 2zm0 2a8 8 0 1 0 0 16 8 8 0 0 0 0-16zm0 11.5a1.5 1.5 0 1 1 0 3 1.5 1.5 0 0 1 0-3zm3.999-6.496c0 1-.372 1.531-1.296 2.204-.923.673-1.56 1.003-1.751 1.761-.134.531-.354 1.02-.906 1.046-.551.025-.98-.475-1.03-.953-.051-.478 0-.979.84-1.854 1.075-1.12 2.176-1.433 1.998-2.336-.177-.903-1.07-1.282-3.368 0-.476.266-1.034.043-1.202-.3-.168-.344-.157-.766.236-1.173 2.314-2.405 6.479-1.598 6.479 1.605z"/></symbol><symbol viewBox="0 0 24 24" id="ram"><path fill-rule="evenodd" d="M21 13v6h-3v1h-5v-1h-2v1H6v-1H3v-6h18zm-2 2H5v2h14v-2zm2-11v6h-3v1h-5v-1h-2v1H6v-1H3V4h18zm-2 2H5v2h14V6z"/></symbol><symbol viewBox="0 0 24 24" id="receipt"><path fill-rule="evenodd" d="M7 10h-.5a.5.5 0 0 1 0-1h1a.5.5 0 0 0 0-1A1.497 1.497 0 0 1 6 6.5a1.5 1.5 0 0 1 1-1.415V4.5a.5.5 0 0 1 1 0V5h.5a.5.5 0 0 1 0 1h-1a.5.5 0 0 0 0 1A1.497 1.497 0 0 1 9 8.5a1.5 1.5 0 0 1-1 1.415v.585a.5.5 0 1 1-1 0V10zm4.5 2h6a.5.5 0 1 1 0 1h-6a.5.5 0 1 1 0-1zm-5 3h11a.5.5 0 1 1 0 1h-11a.5.5 0 1 1 0-1zM14 2l6 6v12a2 2 0 0 1-2 2H6a2 2 0 0 1-2-2V4a2 2 0 0 1 2-2h8zm.5 16h-8a.5.5 0 1 0 0 1h8a.5.5 0 1 0 0-1zM13 3.5V9h5.5L13 3.5z"/></symbol><symbol viewBox="0 0 24 24" id="record-screen"><path d="M3 2h18a2 2 0 0 1 1.994 1.85L23 4v12a2 2 0 0 1-1.85 1.995L21 18h-7v2h2v2H8v-2h2v-2H3a2 2 0 0 1-1.995-1.85L1 16V4c0-1.06.81-1.919 1.85-1.995L3 2h18zm11 4H7a1 1 0 0 0-.993.883L6 7v6a1 1 0 0 0 .883.993L7 14h7a1 1 0 0 0 .993-.883L15 13V7a1 1 0 0 0-1-1zm5 1h-1l-2 2v2l2 2h1V7z"/></symbol><symbol viewBox="0 0 16 16" id="refresh"><path fill-rule="evenodd" d="M6 10l-2.236 2.236A5.961 5.961 0 0 0 8 14a5.996 5.996 0 0 0 5.651-4h2.087c-.889 3.449-4.011 6-7.738 6a7.946 7.946 0 0 1-5.648-2.352L0 16v-6h6zM16 0v6h-6l2.236-2.236A5.961 5.961 0 0 0 8 2a5.996 5.996 0 0 0-5.651 4H.262C1.15 2.551 4.272 0 8 0c2.21 0 4.203.902 5.648 2.352L16 0z"/></symbol><symbol viewBox="0 0 16 16" id="return-arrow"><path fill-rule="evenodd" d="M13 2v8H6v3L2 9l4-4v3h5V2z"/></symbol><symbol viewBox="0 0 24 24" id="rocket"><path fill-rule="evenodd" d="M5 14l-1 2h1.4L1 23l7-4.375V20l2-1v-1l-4-4H5zm8.572-1a2.5 2.5 0 1 1 0-5 2.5 2.5 0 0 1 0 5M10 6a9.731 9.731 0 0 0-1.53 2H5l-3 3 5.282-.003C7.003 12.174 7 13 7 13l4 4s.825-.003 2.004-.282L13 22l3-3v-3.472A9.716 9.716 0 0 0 18 14c5-5 5-13 5-13s-8 0-13 5"/></symbol><symbol viewBox="0 0 24 24" id="server-shield"><path fill-rule="evenodd" d="M10 15.5H4a1 1 0 0 0-1 1v3a1 1 0 0 0 1 1h7.472C10.549 19.209 10 17.634 10 15.995V15.5zm6-6l3 1.085V9.5a1 1 0 0 0-1-1H4a1 1 0 0 0-1 1v3a1 1 0 0 0 1 1h6v-1.83l6-2.17zM8 19h1v-2H8v2zm-3.5-7h2v-2h-2v2zM8 12h1v-2H8v2zm-3.5 7h2v-2h-2v2zM21 12.36v3.708c0 2.958-2.014 5.692-4.758 6.372L16 22.5l-.242-.06C13.014 21.76 11 19.026 11 16.068v-3.709l5-1.859 5 1.86zm-5 .14l-3 1v3c.012 1.357 1.861 3.672 3 4v-8zM4 1.5h14a1 1 0 0 1 1 1v3a1 1 0 0 1-1 1H4a1 1 0 0 1-1-1v-3a1 1 0 0 1 1-1zM4.5 5h2V3h-2v2zM8 5h1V3H8v2z"/></symbol><symbol viewBox="0 0 24 24" id="server"><path fill-rule="evenodd" d="M23 0a1 1 0 0 1 1 1v3a1 1 0 0 1-1 1H13v2h10a1 1 0 0 1 1 1v3a1 1 0 0 1-1 1H13v2h10a1 1 0 0 1 1 1v3a1 1 0 0 1-1 1H13v3h6v2H5v-2h6v-3H1a1 1 0 0 1-1-1v-3a1 1 0 0 1 1-1h10v-2H1a1 1 0 0 1-1-1V8a1 1 0 0 1 1-1h10V5H1a1 1 0 0 1-1-1V1a1 1 0 0 1 1-1h22zM3 15H2v3h1v-3zm2 0H4v3h1v-3zM3 8H2v3h1V8zm2 0H4v3h1V8zM3 1H2v3h1V1zm2 0H4v3h1V1z"/></symbol><symbol viewBox="0 0 24 24" id="sheriff-badge"><path fill-rule="evenodd" d="M18 2l2 3-.089.133C18.8 6.8 18.624 8.89 19.322 10.768c1.893 5.088-.551 7.591-4.068 9.303a8.6 8.6 0 0 1-.613.273l-.329.131A6.88 6.88 0 0 0 12 22a6.873 6.873 0 0 0-2.313-1.525l-.328-.131a8.6 8.6 0 0 1-.613-.273c-3.517-1.712-5.961-4.215-4.069-9.303.698-1.878.523-3.968-.588-5.635L4 5l2-3a5.406 5.406 0 0 0 6 0 5.406 5.406 0 0 0 6 0zm-6 2.274a7.384 7.384 0 0 1-3 .634 7.378 7.378 0 0 1-2.293-.363l-.36.541c.903 1.959.991 4.266.205 6.379-1.236 3.322-.432 5.103 3.069 6.808.161.079.322.15.482.214l.327.131a8.89 8.89 0 0 1 1.57.817 8.915 8.915 0 0 1 1.569-.817l.328-.132c.16-.063.321-.134.482-.213 3.501-1.705 4.305-3.486 3.069-6.808-.786-2.113-.698-4.42.205-6.379l-.36-.541A7.383 7.383 0 0 1 15 4.908a7.384 7.384 0 0 1-3-.634zM12 8l1.176 2.382 2.628.382-1.902 1.854.45 2.618L12 14l-2.351 1.236.449-2.618-1.902-1.854 2.628-.382L12 8z"/></symbol><symbol viewBox="0 0 24 24" id="shield"><path d="M12 12h7c-.53 4.11-3.28 7.78-7 8.92V12H5V6.3l7-3.11V12zm0-11L3 5v6c0 5.55 3.84 10.73 9 12 5.16-1.27 9-6.45 9-12V5l-9-4z"/></symbol><symbol viewBox="0 0 24 24" id="skip-track"><path fill-rule="evenodd" d="M12 2c5.523 0 10 4.477 10 10s-4.477 10-10 10C6.478 22 2 17.523 2 12S6.478 2 12 2zM8.5 7.707a.5.5 0 0 0-.492.41L8 8.207v7.586a.5.5 0 0 0 .784.411l.07-.058 3.792-3.792a.5.5 0 0 0 .058-.638l-.058-.07-3.792-3.792a.5.5 0 0 0-.354-.147zM16 8a1 1 0 0 0-1 1v6a1 1 0 0 0 2 0V9a1 1 0 0 0-1-1z"/></symbol><symbol viewBox="0 0 24 24" id="skull-circle"><path fill-rule="evenodd" d="M15 16.541v.454A2.003 2.003 0 0 1 13.002 19h-2.004A2 2 0 0 1 9 16.995v-.457c-1.765-.851-3-2.789-3-5.038C6 8.462 8.229 6 11.002 6h1.996C15.76 6 18 8.469 18 11.5c0 2.256-1.231 4.193-3 5.041M12 2c5.523 0 10 4.477 10 10s-4.477 10-10 10S2 17.523 2 12 6.477 2 12 2zm0 12a1 1 0 1 0 0 2 1 1 0 0 0 0-2zm-2.5-3a1.5 1.5 0 1 0-.001 2.999A1.5 1.5 0 0 0 9.5 11zm5 0a1.5 1.5 0 1 0-.001 2.999A1.5 1.5 0 0 0 14.5 11z"/></symbol><symbol viewBox="0 0 24 24" id="skull"><path fill-rule="evenodd" d="M12.998 6C15.76 6 18 8.469 18 11.5c0 2.256-1.231 4.193-3 5.041v.454A2.003 2.003 0 0 1 13.002 19h-2.004A2 2 0 0 1 9 16.995v-.457c-1.765-.851-3-2.789-3-5.038C6 8.462 8.229 6 11.002 6h1.996zM12 14a1 1 0 1 0 0 2 1 1 0 0 0 0-2zm-2.5-3a1.5 1.5 0 1 0-.001 2.999A1.5 1.5 0 0 0 9.5 11zm5 0a1.5 1.5 0 1 0-.001 2.999A1.5 1.5 0 0 0 14.5 11z"/></symbol><symbol viewBox="0 0 24 24" id="slack"><path d="M8.474 5.842a2.421 2.421 0 1 1 2.42-2.42v2.42h-2.42zm9.684 3.632a2.421 2.421 0 1 1 2.42 2.42h-2.42v-2.42zm-3.632 9.684a2.421 2.421 0 1 1-2.42 2.42v-2.42h2.42zm-9.684-3.632a2.421 2.421 0 1 1-2.42-2.42h2.42v2.42zm3.632-8.473a2.421 2.421 0 1 1 0 4.842H2.42a2.42 2.42 0 0 1 0-4.842h6.053zm12.105 6.052a2.421 2.421 0 1 1 0 4.842h-6.053a2.42 2.42 0 0 1 0-4.842h6.053zm-9.684 8.474a2.421 2.421 0 1 1-4.842 0v-6.053a2.42 2.42 0 0 1 4.842 0v6.053zm6.052-12.105a2.421 2.421 0 1 1-4.842 0V3.42a2.42 2.42 0 0 1 4.842 0v6.053z"/></symbol><symbol viewBox="0 0 24 24" id="snowflake"><path fill-rule="evenodd" d="M12.986 2v2.46l1.155-1.177 1.32 1.353-2.475 2.527v.804l2.017 1.188.682-.402.906-3.452 1.81.494-.422 1.607 2.086-1.231L21 7.827l-2.084 1.231 1.57.43-.481 1.847-3.383-.925-.682.401v2.378l.682.401 3.383-.926.481 1.848-1.571.43L21 16.172l-.935 1.656-2.086-1.231.423 1.607-1.811.495-.906-3.453-.682-.401-2.017 1.188v.804l2.476 2.527-1.321 1.352-1.155-1.176V22h-1.97v-2.459l-1.151 1.175-1.325-1.352 2.476-2.527v-.804l-2.018-1.188-.681.401-.905 3.454-1.81-.496.421-1.606-2.085 1.229L3 16.173l2.087-1.231-1.575-.43.489-1.847 3.38.925.68-.401v-2.378l-.68-.401-3.38.924-.489-1.846 1.574-.43L3 7.827l.938-1.656 2.085 1.231-.42-1.607L7.412 5.3l.905 3.453.681.402 2.018-1.188v-.804L8.54 4.636l1.325-1.353 1.15 1.176V2h1.971zM12 9.5l-2 1.25v2.5l2 1.25 2-1.25v-2.5L12 9.5z"/></symbol><symbol viewBox="0 0 24 24" id="source-code"><path fill-rule="evenodd" d="M0 11.303l7.304-4.928v2.499c0 .178-.036.343-.108.494a.998.998 0 0 1-.343.389l-2.56 1.778a2.73 2.73 0 0 1-.497.273 6.685 6.685 0 0 1-.55.204c.193.062.376.126.55.191.175.066.34.153.496.262l2.561 1.79c.157.108.271.236.343.383.072.147.108.31.108.488v2.499L0 12.709v-1.406zm11.215 8.445a2.13 2.13 0 0 1-.278.541c-.114.158-.24.29-.38.395a1.552 1.552 0 0 1-.922.316H8.348l5.539-16.816c.13-.383.328-.676.595-.88A1.49 1.49 0 0 1 15.408 3h1.288l-5.481 16.748zM24 12.708l-7.304 4.917v-2.499c0-.178.036-.34.108-.488a1.01 1.01 0 0 1 .343-.383l2.56-1.79c.15-.109.315-.196.492-.262.177-.065.362-.13.555-.191a7.232 7.232 0 0 1-.555-.204 2.424 2.424 0 0 1-.491-.273l-2.561-1.778a.998.998 0 0 1-.343-.39 1.131 1.131 0 0 1-.108-.493V6.375L24 11.303v1.406z"/></symbol><symbol viewBox="0 0 24 24" id="star"><path fill-rule="evenodd" d="M12 16.5l-4.393 2.31a.5.5 0 0 1-.726-.527l.84-4.892-3.555-3.465a.5.5 0 0 1 .277-.853l4.912-.714 2.197-4.45a.5.5 0 0 1 .896 0l2.197 4.45 4.912.714a.5.5 0 0 1 .277.853l-3.554 3.465.839 4.892a.5.5 0 0 1-.726.527L12 16.5z"/></symbol><symbol viewBox="0 0 24 24" id="storage-box"><path d="M21 4v2a1 1 0 0 1-1 1H4a1 1 0 0 1-1-1V4a1 1 0 0 1 1-1h16a1 1 0 0 1 1 1zM4 9h16v12H4V9zm5.5 3a.5.5 0 0 0-.5.5V14h6v-1.5a.5.5 0 0 0-.5-.5h-5z"/></symbol><symbol viewBox="0 0 24 24" id="table"><path d="M5 4h14a2 2 0 0 1 2 2v12a2 2 0 0 1-2 2H5a2 2 0 0 1-2-2V6a2 2 0 0 1 2-2zm0 4v4h6V8H5zm8 0v4h6V8h-6zm-8 6v4h6v-4H5zm8 0v4h6v-4h-6z"/></symbol><symbol viewBox="0 0 24 24" id="tag-kolide"><path fill-rule="evenodd" d="M9.919 3.009c.164-.016.331-.012.495.024.065.014.13.033.192.058.228.078.444.204.624.384l9.29 9.297c.64.642.64 1.682 0 2.324l-5.421 5.423a1.642 1.642 0 0 1-2.322 0l-9.289-9.296a1.607 1.607 0 0 1-.225-.288 1.255 1.255 0 0 1-.261-.762L3 4.796c0-.986.844-1.784 1.885-1.784zM12.579 11H10v.592l1.014.54v4.319h1.573l-.003-1.824-.832-.443h1.018l1.407 2.267H16l-1.666-2.724L16 11h-1.823l-1.236 1.952h-.359L12.58 11zM7 5.5a1.5 1.5 0 1 0-.001 2.998A1.5 1.5 0 0 0 7 5.5z"/></symbol><symbol viewBox="0 0 24 24" id="tag"><path fill-rule="evenodd" d="M7 8.5a1.5 1.5 0 1 1-.001-3A1.5 1.5 0 0 1 7 8.5m13.52 4.272l-9.29-9.297a1.618 1.618 0 0 0-.624-.384 1.179 1.179 0 0 0-.192-.058 1.586 1.586 0 0 0-.495-.024l-5.034.003C3.844 3.012 3 3.81 3 4.796l.002 5.379v-.002c0 .288.1.55.261.762.064.104.139.2.225.288l9.289 9.296a1.642 1.642 0 0 0 2.322 0l5.421-5.423c.64-.642.64-1.682 0-2.324"/></symbol><symbol viewBox="0 0 24 24" id="tags"><path fill-rule="evenodd" d="M5 8.5a1.5 1.5 0 1 1 0-3 1.5 1.5 0 0 1 0 3m2.919-5.49c.165-.017.331-.013.496.023.065.014.129.033.191.058.228.078.444.204.625.384l9.289 9.297a1.645 1.645 0 0 1 0 2.324L13.1 20.52c-.642.64-1.682.64-2.322 0l-9.29-9.297a1.703 1.703 0 0 1-.225-.288 1.255 1.255 0 0 1-.261-.762L1 4.796c0-.986.844-1.784 1.885-1.784zm5.788.283l7.172 7.171a5 5 0 0 1 0 7.072l-3.172 3.171a1 1 0 0 1-1.414-1.414l3.171-3.172a3 3 0 0 0 0-4.242l-7.171-7.172a1 1 0 1 1 1.414-1.414z"/></symbol><symbol viewBox="0 0 24 24" id="target"><path fill-rule="evenodd" d="M10 12a2 2 0 1 0 4.001-.002A2 2 0 0 0 10 12zm2 4a1 1 0 0 0-1 1v.91A6.008 6.008 0 0 1 6.09 13H7a1 1 0 0 0 0-2h-.91A6.008 6.008 0 0 1 11 6.09V7a1 1 0 0 0 2 0v-.91A6.008 6.008 0 0 1 17.91 11H17a1 1 0 0 0 0 2h.91A6.008 6.008 0 0 1 13 17.91V17a1 1 0 0 0-1-1zm9-5h-1.069A7.994 7.994 0 0 0 13 4.069V3a1 1 0 0 0-2 0v1.069A7.994 7.994 0 0 0 4.069 11H3a1 1 0 0 0 0 2h1.069A7.995 7.995 0 0 0 11 19.931V21a1 1 0 0 0 2 0v-1.069A7.995 7.995 0 0 0 19.931 13H21a1 1 0 0 0 0-2z"/></symbol><symbol viewBox="0 0 24 24" id="terminal"><path d="M19 4a2 2 0 0 1 2 2v12a2 2 0 0 1-2 2H5a2 2 0 0 1-2-2V6a2 2 0 0 1 2-2h14zm0 4H5v10h14V8zm-3 6a1 1 0 1 1 0 2h-3a1 1 0 0 1 0-2h3zm-7.293-3.707l2 2a1 1 0 0 1 0 1.414l-2 2a1 1 0 1 1-1.414-1.414L8.586 13l-1.293-1.293a1 1 0 0 1 1.414-1.414z"/></symbol><symbol viewBox="0 0 24 24" id="thermometer"><path d="M10 6v6.422l-.666.596a4 4 0 1 0 5.332 0L14 12.422V6a2 2 0 1 0-4 0zm2-4a4 4 0 0 1 4 4v5.528a6 6 0 1 1-8 0V6a4 4 0 0 1 4-4zm1 8h-2v3.17a3.001 3.001 0 1 0 2.172.068L13 13.17V10zm7-1v1h-3V9h3zm1-3v1h-4V6h4z"/></symbol><symbol viewBox="0 0 24 24" id="trash-can"><path d="M18 4h-2.5l-.414-.414A2 2 0 0 0 13.672 3h-3.344a2 2 0 0 0-1.414.586L8.5 4H6a1 1 0 0 0-1 1v1h14V5a1 1 0 0 0-1-1zM6 19a2 2 0 0 0 2 2h8a2 2 0 0 0 2-2V7.997H6V19z"/></symbol><symbol viewBox="0 0 24 24" id="twitter"><path d="M23.8 5.3c-.8.4-1.7.6-2.7.7 1-.6 1.7-1.5 2.1-2.6-.9.5-1.9.9-3 1.1-.9-.9-2.1-1.5-3.4-1.5-2.6 0-4.7 2.1-4.7 4.7 0 .4 0 .7.1 1.1-3.9-.1-7.3-2-9.7-4.8-.4.7-.6 1.5-.6 2.3 0 1.6.8 3.1 2.1 3.9-.8 0-1.5-.2-2.1-.6v.1c0 2.3 1.6 4.2 3.8 4.6-.5.1-.9.2-1.3.2-.3 0-.6 0-.9-.1.6 1.9 2.3 3.2 4.4 3.3-1.6 1.3-3.6 2-5.8 2-.4 0-.8 0-1.1-.1 2.1 1.3 4.5 2.1 7.2 2.1 8.6 0 13.4-7.2 13.4-13.4v-.6c.8-.6 1.6-1.5 2.2-2.4z"/></symbol><symbol viewBox="0 0 24 24" id="ubuntu"><path fill-rule="evenodd" d="M16.518 18a1.5 1.5 0 1 1 0 3 1.5 1.5 0 1 1 0-3zm.451-5H20a7.457 7.457 0 0 1-1.94 4.544A2.486 2.486 0 0 0 16.52 17a2.505 2.505 0 0 0-2.504 2.5c0 .117.02.229.035.342a7.56 7.56 0 0 1-1.537.158c-1.15 0-2.24-.261-3.214-.724l-.289-.145 1.511-2.613a4.475 4.475 0 0 0 1.992.482c2.245 0 4.086-1.645 4.428-3.79l.028-.21H20zM8.16 6.4l1.52 2.628c-1.013.825-1.673 2.065-1.673 3.472 0 1.408.66 2.648 1.673 3.473L8.16 18.6a7.52 7.52 0 0 1-2.782-3.767A2.498 2.498 0 0 0 7.005 12.5a2.497 2.497 0 0 0-1.627-2.333A7.515 7.515 0 0 1 8.16 6.4zM4.503 11a1.5 1.5 0 1 1 0 3 1.5 1.5 0 1 1 0-3zm8.01-6c.529 0 1.041.055 1.538.158-.015.113-.035.224-.035.342 0 1.378 1.123 2.5 2.503 2.5.584 0 1.116-.209 1.541-.545a7.455 7.455 0 0 1 1.912 4.22L20 12h-3.031c-.252-2.247-2.138-4-4.456-4-.63 0-1.22.14-1.762.376l-.23.106L9.01 5.87A7.476 7.476 0 0 1 12.513 5zm4.006-1a1.5 1.5 0 1 1 0 3 1.5 1.5 0 1 1 0-3z"/></symbol><symbol viewBox="0 0 24 24" id="unlocked"><path fill-rule="evenodd" d="M10 16.723V18a1 1 0 1 1-2 0v-1.277A1.99 1.99 0 0 1 7 15a2 2 0 0 1 4 0 1.99 1.99 0 0 1-1 1.723M17 3a5 5 0 0 0-5 5v3H3.907A1.907 1.907 0 0 0 2 12.908v7.139c0 .527.427.953.953.953h12.094a.953.953 0 0 0 .953-.953v-7.139A1.907 1.907 0 0 0 14.093 11H14V8c0-1.654 1.346-3 3-3s3 1.346 3 3v2l1 1-1 1 1 1h1V8a5 5 0 0 0-5-5"/></symbol><symbol viewBox="0 0 24 24" id="upload"><path d="M18 18a1 1 0 0 1 0 2H6a1 1 0 0 1 0-2zM12.707 3.707l5.44 5.44a.5.5 0 0 1-.354.853H15v5a1 1 0 0 1-1 1h-4a1 1 0 0 1-1-1v-5H6.207a.5.5 0 0 1-.353-.854l5.439-5.439a1 1 0 0 1 1.414 0z"/></symbol><symbol viewBox="0 0 24 24" id="wifi"><path d="M11.8 21l3.6-4.8c-1-.75-2.25-1.2-3.6-1.2s-2.6.45-3.6 1.2l3.6 4.8zm0-18C7.75 3 4.01 4.34 1 6.6L2.8 9c2.5-1.88 5.62-3 9-3s6.5 1.12 9 3l1.8-2.4C19.59 4.34 15.85 3 11.8 3zm0 6c-2.7 0-5.19.89-7.2 2.4l1.8 2.4c1.5-1.13 3.37-1.8 5.4-1.8 2.03 0 3.9.67 5.4 1.8l1.8-2.4C16.99 9.89 14.5 9 11.8 9z"/></symbol><symbol viewBox="0 0 24 24" id="window-gear"><path d="M18.44 9a.36.36 0 0 1 .36.294l.267 1.855c.453.175.842.413 1.216.686l1.792-.7a.358.358 0 0 1 .439.154l1.44 2.422a.347.347 0 0 1-.087.448L22.348 15.3c.03.238.05.469.05.7 0 .231-.02.455-.05.679l1.519 1.162a.347.347 0 0 1 .086.448l-1.439 2.422a.367.367 0 0 1-.439.154l-1.792-.707c-.374.28-.763.511-1.216.693l-.266 1.855a.361.361 0 0 1-.36.294h-2.879a.361.361 0 0 1-.36-.294l-.266-1.855a5.032 5.032 0 0 1-1.216-.693l-1.792.707a.367.367 0 0 1-.439-.154l-1.44-2.422a.339.339 0 0 1 .087-.448l1.519-1.162a5.293 5.293 0 0 1-.05-.679c0-.231.02-.462.05-.7l-1.519-1.141a.339.339 0 0 1-.086-.448l1.44-2.422a.358.358 0 0 1 .438-.154l1.792.7a5.253 5.253 0 0 1 1.216-.686l.266-1.855a.361.361 0 0 1 .36-.294zM18 2a2 2 0 0 1 2 2v4h-2V6H4v12h5v2H4a2 2 0 0 1-2-2V4a2 2 0 0 1 2-2h14zm-1 11a3 3 0 1 0 0 6 3 3 0 0 0 0-6z"/></symbol><symbol viewBox="0 0 24 24" id="windows"><path fill-rule="evenodd" d="M19.002 13v7L11 18.933V13h8.002zM10 13v5.8L4 18v-5h6zm0-6.8V12H4V7l6-.8zM19.002 5v7H11V6.067L19.002 5z"/></symbol><symbol viewBox="0 0 24 24" id="x-circle"><path fill-rule="evenodd" d="M12 2c5.523 0 10 4.477 10 10s-4.477 10-10 10C6.478 22 2 17.523 2 12S6.478 2 12 2zM8.71 7.293a1 1 0 0 0-1.414 1.414l3.29 3.292-3.293 3.294a1 1 0 0 0 1.414 1.414l3.294-3.293 3.292 3.293a1 1 0 1 0 1.414-1.414l-3.292-3.294 3.292-3.292a1 1 0 1 0-1.414-1.414L12 10.585z"/></symbol><symbol viewBox="0 0 24 24" id="x"><path d="M12 9.996L6 4a1.415 1.415 0 0 0-2 2l6 5.996-6 5.997a1.413 1.413 0 1 0 2 1.999l6-5.997 6 5.997a1.415 1.415 0 0 0 2-1.999l-6-5.997 6-5.997A1.413 1.413 0 1 0 18 4l-6 5.997z"/></symbol></svg>